<svg width="45" height="62" viewBox="0 0 45 62" fill="none" xmlns="http://www.w3.org/2000/svg">
<path fill-rule="evenodd" clip-rule="evenodd" d="M14.4123 46.7575L14.4266 46.5098L8.4724 39.4149C8.24391 39.595 8.04763 39.8312 8.1823 40.1436C8.68337 41.3076 13.3015 45.2515 14.4123 46.7575Z" fill="#23B5C9"/>
<path fill-rule="evenodd" clip-rule="evenodd" d="M19.9257 60.6824L19.9837 60.5364L6.6463 45.2723L6.50944 45.3794L6.27271 46.1704L19.9257 60.6824Z" fill="#23B5C9"/>
<path fill-rule="evenodd" clip-rule="evenodd" d="M19.9837 60.5364L19.9258 60.6824C20.3062 61.0137 20.6756 61.7357 21.165 61.833L19.9837 60.5364Z" fill="#23B5C9"/>
<path fill-rule="evenodd" clip-rule="evenodd" d="M26.5396 57.8025L26.5458 57.5545L17.8363 48.1364L17.2527 48.5861L26.5396 57.8025Z" fill="#23B5C9"/>
<path fill-rule="evenodd" clip-rule="evenodd" d="M25.1121 53.4505L25.1183 53.2024L19.2673 46.7417L18.6831 47.1786L25.1121 53.4505Z" fill="#23B5C9"/>
<path fill-rule="evenodd" clip-rule="evenodd" d="M26.5458 57.5545L26.5396 57.8025L27.9831 59.2396L28.0677 59.1572L26.5458 57.5545Z" fill="#23B5C9"/>
<path fill-rule="evenodd" clip-rule="evenodd" d="M25.1183 53.2024L25.1121 53.4505L26.3187 54.6299L26.4022 54.5478L25.1183 53.2024Z" fill="#23B5C9"/>
<path fill-rule="evenodd" clip-rule="evenodd" d="M29.6808 20.6076L29.4329 20.6057L22.7343 14.2092C22.9286 13.9929 23.1768 13.8121 23.48 13.9665C24.6095 14.5413 28.2492 19.4023 29.6808 20.6076Z" fill="#23B5C9"/>
<path fill-rule="evenodd" clip-rule="evenodd" d="M43.2238 27.0018L43.0747 27.0505L28.6965 12.7622L28.8124 12.6325L29.6168 12.4471L43.2238 27.0018Z" fill="#23B5C9"/>
<path fill-rule="evenodd" clip-rule="evenodd" d="M43.0747 27.0505L43.2238 27.0019C43.5301 27.4029 44.227 27.8179 44.2927 28.3125L43.0747 27.0505Z" fill="#23B5C9"/>
<path fill-rule="evenodd" clip-rule="evenodd" d="M39.5538 32.8836L39.3059 32.8741L30.4653 23.5788L30.9514 23.0252L39.5538 32.8836Z" fill="#23B5C9"/>
<path fill-rule="evenodd" clip-rule="evenodd" d="M35.6743 31.7141L35.4265 31.7045L29.354 25.4515L29.8273 24.8964L35.6743 31.7141Z" fill="#23B5C9"/>
<path fill-rule="evenodd" clip-rule="evenodd" d="M39.6781 33.4082L39.926 33.4178L41.2675 34.9505L41.18 35.0296L39.6781 33.4082Z" fill="#23B5C9"/>
<path fill-rule="evenodd" clip-rule="evenodd" d="M35.4265 31.7045L35.6743 31.7142L36.774 32.9938L36.6868 33.0721L35.4265 31.7045Z" fill="#23B5C9"/>
<path d="M21.7408 26.861L19.7692 27.5951L18.7893 25.7834L20.7568 25.0385L21.7367 26.8502L21.7408 26.861ZM19.7692 27.5951L21.7367 26.8502L21.7583 26.8932L21.7769 26.9366L21.7929 26.9803L21.806 27.0242L21.8164 27.0685L21.8242 27.1126L21.8294 27.1569L21.8318 27.201V27.2451L21.8292 27.289L21.824 27.3326L21.8164 27.3759L21.8065 27.4187L21.7939 27.4608L21.779 27.5025L21.7619 27.5436L21.7425 27.5838L21.7207 27.6234L21.6967 27.6621L21.6705 27.6997L21.6422 27.7362L21.6115 27.7717L21.5789 27.806L21.5443 27.8391L21.5075 27.8709L21.4688 27.9011L21.4282 27.9299L21.3854 27.9571L21.3409 27.9828L21.2946 28.0066L21.2462 28.0287L21.1963 28.049L21.145 28.0672L21.0934 28.0827L21.0413 28.0961L20.989 28.1071L20.9364 28.116L20.8839 28.1225L20.8312 28.1268L20.7784 28.129H20.7261L20.6738 28.1268L20.6219 28.1225L20.5705 28.116L20.5197 28.1076L20.4693 28.0972L20.4196 28.0847L20.3707 28.0702L20.3227 28.054L20.2758 28.0356L20.2298 28.0155L20.1851 27.9934L20.1414 27.9697L20.0992 27.9439L20.0584 27.9165L20.019 27.8873L19.9812 27.8566L19.9451 27.824L19.911 27.7898L19.8785 27.7539L19.8481 27.7165L19.8195 27.6776L19.7932 27.637L19.7692 27.5951ZM22.5784 28.5926L20.5435 29.1884L20.5288 29.157L20.5177 29.1244L20.5015 29.0905L20.4849 29.0559L20.4715 29.0198L20.4533 28.983L20.4345 28.9448L20.4151 28.902L20.3993 28.8615L20.3783 28.8203L20.3569 28.7742L20.3388 28.7306L20.3158 28.686L20.2923 28.6367L20.2681 28.5862L20.2432 28.538L20.222 28.4889L20.1957 28.4351L20.1686 28.3802L20.1412 28.3242L20.1129 28.2708L20.088 28.2161L20.0582 28.1569L20.0279 28.0963L19.9968 28.0386L19.9652 27.9759L19.9328 27.9124L19.8997 27.8475L19.866 27.7851L19.836 27.7181L19.8007 27.65L19.7651 27.5842L21.7408 26.861L21.7769 26.9366L21.8117 27.0017L21.8504 27.0687L21.8841 27.1381L21.9172 27.2029L21.9496 27.2665L21.9811 27.3292L22.0123 27.3942L22.0425 27.4548L22.0724 27.514L22.1054 27.5756L22.1338 27.6363L22.1612 27.6923L22.1882 27.7472L22.2146 27.8011L22.2444 27.857L22.2693 27.9122L22.2935 27.9627L22.3171 28.012L22.34 28.0639L22.3663 28.1145L22.3877 28.1605L22.4087 28.2092L22.4331 28.2565L22.4526 28.2993L22.4714 28.3445L22.4896 28.3886L22.5112 28.4316L22.5278 28.4735L22.544 28.5144L22.5637 28.5539L22.5784 28.5926ZM21.1941 29.6319L23.1785 30.3414L21.2659 30.4583L21.2371 30.4209L21.2086 30.3796L21.1807 30.3418L21.1571 30.3044L21.1295 30.2631L21.1024 30.2255L21.0756 30.1845L21.0534 30.1468L21.027 30.109L21.0013 30.0677L20.9756 30.0301L20.9505 29.9886L20.93 29.951L20.9051 29.9097L20.8811 29.8684L20.8614 29.8306L20.8376 29.7928L20.8145 29.7513L20.7957 29.7134L20.773 29.6722L20.7508 29.6306L20.7287 29.5928L20.7112 29.5513L20.69 29.5098L20.6688 29.472L20.6524 29.4305L20.6321 29.3927L20.612 29.3512L20.5964 29.3094L20.5772 29.2716L20.5579 29.2301L20.5435 29.1884L22.5784 28.5926L22.5929 28.6201L22.6035 28.6473L22.6145 28.6782L22.6301 28.7057L22.6415 28.7329L22.6536 28.7638L22.67 28.7911L22.6826 28.822L22.6956 28.8492L22.7131 28.8765L22.7265 28.9074L22.7405 28.9346L22.7546 28.9616L22.7734 28.9925L22.7883 29.0198L22.8034 29.0503L22.8231 29.0812L22.8389 29.1082L22.8551 29.1352L22.8756 29.1659L22.8925 29.1931L22.9096 29.2238L22.9271 29.2509L22.9448 29.2813L22.9671 29.312L22.9852 29.3388L23.004 29.3695L23.023 29.3965L23.0466 29.427L23.0663 29.4575L23.0862 29.4845L23.1067 29.515L21.1941 29.6319ZM21.2659 30.4583L23.1067 29.515L23.1344 29.5554L23.1594 29.5965L23.1815 29.6382L23.2012 29.6804L23.218 29.723L23.2323 29.7662L23.2437 29.8094L23.2528 29.8531L23.2593 29.8967L23.2632 29.9404L23.2645 29.9841L23.2634 30.0277L23.2597 30.0712L23.2537 30.1144L23.245 30.1574L23.234 30.1998L23.2208 30.2417L23.2051 30.2832L23.1869 30.3241L23.1664 30.3641L23.1437 30.4034L23.1188 30.4417L23.0914 30.4791L23.062 30.5156L23.0302 30.5508L22.9962 30.5848L22.9601 30.6176L22.9219 30.6492L22.8815 30.679L22.8391 30.7076L22.7946 30.7346L22.7479 30.7599L22.6999 30.7832L22.6508 30.8042L22.6013 30.8228L22.5509 30.8392L22.5002 30.8535L22.4489 30.8654L22.3973 30.8751L22.3456 30.8827L22.2935 30.8881L22.2414 30.8913L22.1893 30.8924L22.1374 30.8915L22.0856 30.8885L22.0341 30.8833L21.9831 30.8762L21.9325 30.8669L21.8826 30.8556L21.8333 30.8425L21.7847 30.8271L21.7371 30.81L21.6902 30.791L21.6446 30.7698L21.6001 30.7469L21.5568 30.7223L21.5147 30.6955L21.4742 30.6669L21.4351 30.6367L21.3977 30.6045L21.3621 30.5705L21.3279 30.5349L21.2959 30.4975L21.2659 30.4583ZM25.3742 22.573L26.5904 24.0697L26.5724 24.0805L26.5173 24.128L26.4377 24.2041L26.3383 24.3109L26.2326 24.443L26.1163 24.5991L25.9899 24.7709L25.8623 24.9635L25.7339 25.1723L25.6008 25.3922L25.4631 25.6217L25.3301 25.8627L25.1937 26.1146L25.0582 26.3675L24.9244 26.6282L24.7923 26.8945L24.6583 27.1582L24.5312 27.4249L24.4028 27.6859L24.282 27.947L24.1609 28.2031L24.044 28.4563L23.9359 28.6981L23.8285 28.934L23.7264 29.1557L23.6302 29.3687L23.5401 29.5712L23.4564 29.7549L23.3756 29.9257L23.3062 30.082L23.2405 30.2186L23.1785 30.3414L21.1941 29.6319L21.2393 29.5377L21.2968 29.4154L21.3662 29.2733L21.4384 29.1095L21.522 28.9258L21.6122 28.7301L21.7083 28.5172L21.8104 28.2885L21.9178 28.0527L22.0345 27.8039L22.1515 27.5507L22.2725 27.2872L22.4016 27.0192L22.53 26.744L22.6657 26.4704L22.7997 26.1924L22.94 25.9187L23.0825 25.6442L23.2262 25.3697L23.3713 25.104L23.5211 24.8414L23.667 24.5837L23.817 24.3353L23.9709 24.098L24.124 23.8699L24.2755 23.6488L24.4341 23.443L24.5991 23.247L24.766 23.0624L24.9467 22.8868L25.1453 22.7256L25.3742 22.573ZM26.5904 24.0697L25.3742 22.573L25.4209 22.5477L25.4685 22.5246L25.5169 22.5038L25.566 22.4852L25.6159 22.4688L25.6665 22.4547L25.7173 22.4428L25.7687 22.4329L25.8204 22.4253L25.8723 22.4199L25.9241 22.4165L25.976 22.4152L26.0279 22.416L26.0796 22.4189L26.131 22.424L26.1822 22.431L26.2328 22.44L26.283 22.4511L26.3323 22.4642L26.3809 22.4794L26.4289 22.4965L26.4758 22.5155L26.5216 22.5364L26.5664 22.5594L26.61 22.5842L26.6522 22.611L26.693 22.6396L26.7324 22.67L26.7702 22.7025L26.8063 22.7366L26.8407 22.7727L26.8731 22.8105L26.9031 22.8497L26.9306 22.8897L26.9555 22.9303L26.9775 22.9718L26.997 23.0137L27.0138 23.0561L27.0281 23.0989L27.0398 23.1419L27.0488 23.1854L27.0553 23.2288L27.0594 23.2725L27.0607 23.3161L27.0599 23.3598L27.0564 23.4033L27.0503 23.4465L27.0419 23.4893L27.0313 23.5319L27.0179 23.5738L27.0024 23.6153L26.9844 23.6564L26.9641 23.6966L26.9414 23.7359L26.9165 23.7744L26.8893 23.812L26.8597 23.8485L26.8279 23.8842L26.7938 23.9184L26.7574 23.9514L26.719 23.9832L26.6783 24.0137L26.6353 24.0424L26.5904 24.0697ZM27.0687 22.2364L26.7985 24.031L26.7795 24.0323L26.7683 24.0303L26.7568 24.0288L26.7395 24.031L26.7229 24.0288L26.7069 24.0323L26.6909 24.0312L26.6768 24.0355L26.6643 24.0379L26.6353 24.0424L26.6239 24.0502L26.6115 24.0584L26.5904 24.0697L25.3742 22.573L25.4209 22.5477L25.4685 22.5246L25.5169 22.5038L25.566 22.4852L25.6105 22.4545L25.6593 22.4318L25.7082 22.4098L25.7573 22.3918L25.8107 22.3709L25.8688 22.3542L25.9142 22.3382L25.9726 22.3224L26.027 22.3075L26.0815 22.293L26.1321 22.2829L26.187 22.2695L26.2421 22.2602L26.2977 22.2518L26.3532 22.244L26.409 22.2364L26.465 22.2297L26.521 22.2234L26.5774 22.2215L26.6299 22.22L26.6824 22.2191L26.7395 22.2152L26.7966 22.2191L26.8497 22.22L26.9031 22.2215L26.9567 22.2234L27.0106 22.2297L27.0687 22.2364ZM28.8929 23.0494L27.2125 24.1842L27.201 24.1704L27.1824 24.1555L27.1697 24.1466L27.1582 24.1367L27.1442 24.1296L27.1342 24.1216L27.1161 24.1112L27.0994 24.1032L27.086 24.0984L27.0696 24.0909L27.054 24.0844L27.0378 24.0822L27.0251 24.0772L27.0075 24.069L26.9935 24.0651L26.9745 24.0621L26.9548 24.0558L26.9388 24.0539L26.9178 24.0489L26.9003 24.045L26.874 24.0414L26.8508 24.0383L26.8271 24.0362L26.7985 24.031L27.0687 22.2364L27.131 22.2416L27.1971 22.2511L27.2622 22.2611L27.3227 22.2717L27.3908 22.2829L27.4537 22.2948L27.5207 22.311L27.5823 22.3242L27.6437 22.3415L27.7083 22.3596L27.7682 22.3748L27.8316 22.394L27.8901 22.4178L27.9476 22.4381L28.0133 22.463L28.0739 22.4885L28.1296 22.5144L28.1889 22.541L28.2475 22.5721L28.3013 22.6L28.3586 22.6322L28.4109 22.6614L28.4625 22.6949L28.5179 22.7325L28.5723 22.7708L28.6218 22.806L28.6666 22.8456L28.7193 22.8858L28.7626 22.9232L28.8054 22.9647L28.8516 23.0066L28.8929 23.0494ZM27.2125 24.1842L28.8929 23.0494L28.9264 23.0898L28.9571 23.1279L28.9854 23.1668L29.0111 23.2065L29.0341 23.247L29.0546 23.288L29.0725 23.3298L29.0881 23.3719L29.1009 23.4145L29.1112 23.4573L29.1192 23.5005L29.1246 23.5438L29.1274 23.5872L29.1279 23.6307L29.1257 23.6739L29.1212 23.7171L29.1143 23.7601L29.105 23.8027L29.0931 23.8451L29.0788 23.8868L29.0624 23.9281L29.0434 23.9687L29.022 24.0085L28.9982 24.0476L28.972 24.0859L28.9435 24.1233L28.9126 24.1594L28.8795 24.1946L28.8441 24.2286L28.8062 24.2614L28.7662 24.2928L28.7239 24.3226L28.6798 24.3507L28.6346 24.3766L28.5881 24.4002L28.541 24.4218L28.4928 24.4413L28.4439 24.4586L28.3942 24.4737L28.3441 24.4867L28.2935 24.4975L28.2425 24.5061L28.191 24.5128L28.1396 24.5173L28.0879 24.5197L28.0363 24.5202L27.9846 24.5184L27.9332 24.5145L27.8819 24.5087L27.8313 24.5009L27.781 24.491L27.7313 24.4791L27.6822 24.465L27.6338 24.449L27.5862 24.4311L27.5397 24.4112L27.4941 24.3892L27.4498 24.3652L27.4066 24.3394L27.3649 24.3116L27.3242 24.2817L27.2853 24.25L27.2481 24.2165L27.2125 24.1842ZM29.4184 24.732L27.2823 24.4981L27.2829 24.4823L27.2831 24.4635L27.2864 24.4488L27.2886 24.4341L27.2899 24.4164L27.286 24.3991L27.2899 24.3822L27.2886 24.3691L27.2862 24.3565L27.2827 24.3358L27.2821 24.3206L27.2773 24.3057L27.2732 24.2887L27.2695 24.2731L27.2626 24.2593L27.2557 24.2465L27.2492 24.2318L27.2481 24.2165L27.2343 24.2104L27.2252 24.1968L27.2125 24.1842L28.8929 23.0494L28.9264 23.0898L28.9731 23.1398L29.0118 23.1836L29.0496 23.2316L29.0864 23.2798L29.1181 23.3285L29.1532 23.3773L29.183 23.4303L29.2079 23.4765L29.2401 23.5301L29.2628 23.5842L29.2889 23.635L29.3101 23.6897L29.33 23.7413L29.3492 23.7932L29.3674 23.849L29.3803 23.9052L29.3966 23.9581L29.408 24.0117L29.4182 24.0725L29.4275 24.1231L29.4318 24.1775L29.4391 24.2359L29.4415 24.2912L29.4428 24.3468L29.4476 24.3991L29.4428 24.4519L29.4415 24.505L29.4394 24.5621L29.4361 24.6196L29.4277 24.6739L29.4184 24.732ZM29.3497 25.0928L27.2218 24.8018L27.2254 24.7828L27.2291 24.7575L27.2328 24.7467L27.236 24.7294L27.2395 24.7125L27.2425 24.6965L27.2458 24.6808L27.2486 24.6659L27.2516 24.6512L27.2568 24.6239L27.2594 24.6109L27.2618 24.5952L27.2641 24.5835L27.2682 24.5614L27.2739 24.5329L27.2784 24.5197L27.2823 24.4981L29.4184 24.732L29.4136 24.7681L29.4089 24.794L29.4035 24.8224L29.3983 24.8494L29.392 24.8814L29.3897 24.893L29.3847 24.9149L29.3795 24.9421L29.3765 24.9568L29.3737 24.9717L29.3704 24.9875L29.3674 25.0035L29.3639 25.0204L29.3607 25.0377L29.357 25.0623L29.3533 25.0738L29.3497 25.0928ZM26.532 31.2564L24.5308 30.5824L24.6966 30.2372L24.8572 29.8989L25.0126 29.571L25.163 29.2537L25.3083 28.9467L25.4484 28.6501L25.5791 28.3642L25.7088 28.0886L25.8336 27.8268L25.9531 27.5721L26.0675 27.3281L26.1766 27.0942L26.2806 26.8711L26.3796 26.6582L26.4734 26.4596L26.562 26.2676L26.6455 26.0863L26.7239 25.9189L26.7929 25.7583L26.8608 25.6118L26.9239 25.4724L26.9816 25.347L27.03 25.2318L27.0774 25.1237L27.1197 25.0297L27.153 24.9492L27.185 24.8796L27.2077 24.8204L27.2254 24.7828L27.2328 24.7467L27.2218 24.8018L29.3497 25.0928L29.3265 25.1952L29.3021 25.2618L29.277 25.3249L29.2513 25.395L29.22 25.4685L29.188 25.5523L29.1465 25.6466L29.1041 25.748L29.0568 25.856L28.9997 25.9782L28.942 26.1109L28.8789 26.2503L28.811 26.4038L28.7334 26.5644L28.6549 26.7386L28.5715 26.92L28.4829 27.1119L28.389 27.3179L28.29 27.5309L28.1861 27.7539L28.0769 27.9878L27.9625 28.2319L27.843 28.4865L27.7183 28.7552L27.5886 29.0308L27.4496 29.3168L27.3095 29.6134L27.1643 29.9203L27.0138 30.2376L26.8584 30.5656L26.6978 30.9038L26.532 31.2564ZM24.5308 30.5824L26.532 31.2564L26.5104 31.2955L26.4864 31.337L26.46 31.3768L26.4317 31.4153L26.4014 31.4522L26.369 31.4877L26.3349 31.5214L26.299 31.5536L26.2614 31.5841L26.222 31.6131L26.1814 31.6403L26.1392 31.6656L26.0958 31.6894L26.051 31.7112L26.0052 31.7311L25.9583 31.7493L25.9105 31.7655L25.8617 31.7799L25.812 31.7923L25.7618 31.8026L25.7108 31.8109L25.6593 31.8171L25.6075 31.8215L25.5552 31.8234H25.5026L25.4499 31.821L25.3971 31.8167L25.3442 31.81L25.2914 31.8009L25.2389 31.7895L25.1866 31.7758L25.1345 31.7598L25.0835 31.7417L25.0342 31.7214L24.9867 31.6995L24.941 31.6755L24.8969 31.65L24.8548 31.623L24.8146 31.5943L24.7763 31.564L24.74 31.5324L24.7056 31.4996L24.6732 31.4654L24.643 31.43L24.6149 31.3934L24.5887 31.3558L24.5649 31.3174L24.5433 31.278L24.5241 31.2378L24.507 31.1967L24.4923 31.1552L24.48 31.1129L24.47 31.0701L24.4625 31.0268L24.4575 30.9834L24.4551 30.9395V30.8952L24.4579 30.8509L24.4631 30.8066L24.4711 30.7623L24.4819 30.7179L24.4953 30.6736L24.5117 30.6298L24.5308 30.5824ZM23.4366 33.6863L23.4028 32.9485L24.5308 30.5824L26.532 31.2564L25.4041 33.6225L23.4366 33.6863ZM23.4028 32.9485L25.4041 33.6225L25.3822 33.6653L25.358 33.7066L25.3314 33.7466L25.3029 33.7851L25.2724 33.8218L25.2398 33.8573L25.2054 33.891L25.1693 33.9232L25.1315 33.9537L25.0921 33.9824L25.0513 34.0094L25.0089 34.0347L24.9655 34.0583L24.9205 34.0801L24.8745 34.1L24.8273 34.118L24.7794 34.1342L24.7305 34.1484L24.6808 34.1605L24.6304 34.1709L24.5794 34.1789L24.5277 34.1852L24.4759 34.1891L24.4233 34.191L24.3708 34.1908L24.3181 34.1884L24.2651 34.1837L24.2121 34.1767L24.1594 34.1677L24.1069 34.156L24.0546 34.1422L24.0025 34.1259L23.9515 34.1076L23.9022 34.0873L23.8548 34.065L23.809 34.041L23.7651 34.0153L23.723 33.988L23.6828 33.9591L23.6445 33.9288L23.6082 33.897L23.574 33.864L23.5418 33.8296L23.5116 33.7939L23.4835 33.7574L23.4575 33.7196L23.4366 33.6863L23.4123 33.6415L23.3933 33.6011L23.3762 33.56L23.3618 33.5183L23.3497 33.476L23.3399 33.4331L23.3326 33.3897L23.3278 33.346L23.3255 33.3022L23.3257 33.2578L23.3287 33.2135L23.3341 33.1692L23.3423 33.1247L23.3533 33.0804L23.367 33.0363L23.3836 32.9922L23.4028 32.9485ZM25.6701 33.6694L23.5423 33.9742L23.5384 33.9595L23.5347 33.9372L23.5299 33.9223L23.5247 33.8972L23.5198 33.8869L23.5178 33.873L23.5124 33.8594L23.5051 33.8391L23.5016 33.8229L23.4973 33.8073L23.4906 33.7976L23.4813 33.7755L23.4724 33.7516L23.4657 33.7375L23.4575 33.7196L23.45 33.707L23.4366 33.6863L25.3703 32.8847L25.3833 32.907L25.3963 32.9327L25.4088 32.9552L25.4216 32.9742L25.4339 33.0006L25.4462 33.0231L25.4583 33.0497L25.4702 33.0724L25.4819 33.0992L25.4892 33.1188L25.505 33.1454L25.5162 33.1725L25.5232 33.1926L25.5342 33.2161L25.5409 33.2397L25.5515 33.2671L25.5621 33.2911L25.5722 33.3186L25.5824 33.3428L25.5882 33.3633L25.5979 33.3912L25.6034 33.4122L25.6131 33.4435L25.6222 33.4684L25.6271 33.493L25.6319 33.5144L25.641 33.5393L25.6455 33.5678L25.6539 33.5966L25.658 33.6219L25.6663 33.6474L25.6701 33.6694ZM25.714 34.5587L23.603 34.1757L23.582 34.346L23.5827 34.3287L23.5829 34.3164L23.5827 34.295L23.582 34.2734L23.581 34.2513L23.5792 34.2325L23.5784 34.2193L23.5758 34.1966L23.5727 34.1767L23.5712 34.1633L23.5714 34.143L23.5693 34.1292L23.5671 34.1154L23.5647 34.1013L23.5624 34.0873L23.5613 34.0695L23.5582 34.055L23.5552 34.0371L23.5522 34.0261L23.5496 34.0004L23.5459 33.9891L23.5423 33.9742L25.6701 33.6694L25.6738 33.6912L25.6775 33.7168L25.6807 33.7384L25.6883 33.7637L25.6913 33.789L25.6944 33.8069L25.6974 33.8283L25.7002 33.8532L25.7071 33.8815L25.7095 33.9029L25.7119 33.9238L25.714 33.9446L25.7162 33.9658L25.7181 33.9863L25.7242 34.0142L25.7257 34.0349L25.7274 34.0555L25.7287 34.0829L25.73 34.0998L25.7313 34.1272L25.7322 34.1473L25.7333 34.1677L25.7339 34.1947L25.7346 34.2146L25.735 34.2379L25.7354 34.2576L25.7357 34.2807L25.7359 34.3006V34.3233L25.7357 34.343L25.7354 34.3659L25.735 34.3884L25.714 34.5587ZM23.582 34.346L25.735 34.3884L25.7324 34.4348L25.7268 34.4807L25.7188 34.5258L25.708 34.5702L25.6948 34.6136L25.6792 34.6562L25.6611 34.6979L25.6405 34.7388L25.6178 34.7783L25.593 34.8168L25.5662 34.8542L25.537 34.8903L25.5061 34.9253L25.4732 34.9588L25.4384 34.9908L25.4019 35.0215L25.3636 35.0509L25.3239 35.0786L25.2823 35.1045L25.2393 35.1289L25.195 35.1516L25.1494 35.1726L25.1025 35.1916L25.0543 35.2087L25.0048 35.224L24.9544 35.2372L24.903 35.2485L24.8507 35.2575L24.7975 35.2645L24.7435 35.269L24.6886 35.2716H24.6332L24.5779 35.2694L24.5232 35.2647L24.4696 35.258L24.4168 35.2489L24.365 35.2379L24.3144 35.2247L24.2647 35.2094L24.2162 35.1923L24.1691 35.1733L24.1233 35.1523L24.0788 35.1296L24.0357 35.1052L23.9942 35.0792L23.9543 35.0515L23.916 35.0224L23.8795 34.9917L23.8447 34.9595L23.8118 34.9262L23.7809 34.8914L23.7517 34.8553L23.7249 34.8179L23.7 34.7796L23.6773 34.7401L23.6568 34.6996L23.6387 34.6581L23.6229 34.6158L23.6097 34.5725L23.5989 34.5287L23.5907 34.4839L23.585 34.4385L23.5822 34.3925L23.582 34.346ZM25.0779 35.5178L23.5159 34.2697L23.5254 34.2604L23.5347 34.2515L23.5472 34.2405L23.5583 34.2293L23.5652 34.2202L23.5784 34.2193L23.5758 34.1966L23.5896 34.1932L23.603 34.1757L25.714 34.5587L25.7052 34.5933L25.6918 34.6311L25.6792 34.6562L25.6611 34.6979L25.6572 34.7275L25.6421 34.7656L25.6263 34.8036L25.6144 34.8343L25.598 34.865L25.5811 34.8994L25.5595 34.9337L25.5459 34.9608L25.5277 34.9917L25.505 35.0258L25.4855 35.0565L25.4661 35.0838L25.4462 35.1179L25.4257 35.1449L25.4049 35.1719L25.3837 35.2024L25.358 35.2294L25.3358 35.2601L25.3131 35.2833L25.286 35.314L25.2625 35.3408L25.2387 35.3641L25.2102 35.3909L25.1853 35.4177L25.1602 35.4411L25.1304 35.4715L25.1042 35.4947L25.0779 35.5178ZM24.4558 35.8513L22.7334 34.7662L23.1471 34.4861L23.1599 34.4796L23.1811 34.4731L23.1934 34.4664L23.2217 34.4556L23.2377 34.4485L23.2563 34.4366L23.2757 34.4286L23.2971 34.4193L23.3216 34.4054L23.3358 34.3966L23.3549 34.3853L23.3683 34.3793L23.3814 34.3696L23.3985 34.3601L23.4111 34.3499L23.4309 34.3356L23.4428 34.3285L23.4612 34.3131L23.4789 34.3006L23.4895 34.2924L23.5059 34.2786L23.5159 34.2697L25.0779 35.5178L25.0511 35.5409L25.0241 35.5639L24.9927 35.5902L24.9653 35.6127L24.9374 35.6352L24.9052 35.6607L24.8812 35.6793L24.8444 35.7046L24.8157 35.726L24.7869 35.7437L24.7534 35.7683L24.724 35.7859L24.6946 35.8066L24.6564 35.8308L24.6263 35.8475L24.596 35.8678L24.5615 35.8877L24.5264 35.9075L24.4953 35.9233L24.4642 35.9391L24.4285 35.9583L24.3967 35.9774L24.3565 35.9962L24.3284 36.0111L24.2921 36.0262L24.2511 36.0442L24.2182 36.0586L24.1892 36.0729L24.1475 36.0906L24.1097 36.1043L24.0803 36.1181L24.042 36.1315L24.4558 35.8513ZM23.1471 34.4861L24.042 36.1315L23.991 36.1496L23.9396 36.1656L23.8877 36.1793L23.8356 36.1905L23.7833 36.1996L23.7308 36.2063L23.6782 36.2108L23.6257 36.213L23.5734 36.2132L23.5213 36.2112L23.4694 36.2071L23.418 36.2011L23.3672 36.1929L23.3168 36.1827L23.2673 36.1704L23.2185 36.1561L23.1705 36.1401L23.1233 36.122L23.0775 36.1021L23.0326 36.0803L22.9889 36.0567L22.9467 36.0314L22.9057 36.0042L22.8663 35.9752L22.8285 35.9447L22.7922 35.9123L22.7578 35.8784L22.7252 35.8427L22.6945 35.8055L22.6659 35.7668L22.6394 35.7266L22.6151 35.6847L22.5933 35.6419L22.5745 35.5986L22.5583 35.5552L22.5449 35.5113L22.5341 35.4672L22.5261 35.4231L22.5207 35.379L22.5179 35.3349V35.291L22.52 35.2472L22.525 35.2037L22.5324 35.1605L22.5421 35.1179L22.5542 35.0755L22.5687 35.0338L22.5857 34.993L22.6048 34.9525L22.6264 34.913L22.6502 34.8745L22.6759 34.8367L22.704 34.8001L22.7334 34.7662L22.7667 34.7301L22.801 34.697L22.8376 34.6653L22.8761 34.6348L22.9165 34.6058L22.9588 34.5786L23.0032 34.5529L23.0492 34.5286L23.0974 34.5064L23.1471 34.4861ZM22.7349 38.11L20.8603 37.2233L20.9189 37.1332L20.9773 37.0435L21.0398 36.9585L21.0979 36.8708L21.1599 36.7841L21.2177 36.6978L21.2797 36.6161L21.3372 36.5318L21.3945 36.4482L21.4557 36.3656L21.5127 36.2871L21.5739 36.2063L21.6305 36.1259L21.6913 36.0468L21.7477 35.9681L21.8082 35.8939L21.8642 35.8172L21.9243 35.7413L21.9844 35.6661L22.0399 35.5919L22.0996 35.5185L22.1549 35.4458L22.2144 35.3743L22.2734 35.3032L22.3283 35.2331L22.3873 35.1637L22.4459 35.0954L22.5047 35.0278L22.5589 34.9612L22.6173 34.8955L22.6759 34.8367L22.7334 34.7662L24.4558 35.8513L24.4063 35.9084L24.3565 35.9663L24.3068 36.0251L24.2526 36.0848L24.2024 36.1451L24.152 36.2065L24.1017 36.2685L24.0468 36.3316L23.996 36.3954L23.9452 36.46L23.8898 36.5258L23.8384 36.5919L23.7828 36.6591L23.7314 36.727L23.6795 36.796L23.6235 36.8658L23.5717 36.9399L23.5152 37.0113L23.4627 37.0835L23.4061 37.1565L23.3535 37.2305L23.2965 37.3089L23.2435 37.3846L23.1862 37.4609L23.1287 37.5383L23.0753 37.62L23.0176 37.6989L22.9638 37.7786L22.9057 37.8595L22.8518 37.9444L22.7935 38.0268L22.7349 38.11ZM20.8603 37.2233L22.7349 38.11L22.7066 38.15L22.6761 38.1883L22.6437 38.2248L22.6095 38.2596L22.5734 38.2927L22.5358 38.3242L22.4967 38.3538L22.4558 38.3815L22.4137 38.4074L22.3702 38.4317L22.3255 38.4539L22.2799 38.4745L22.233 38.4928L22.1852 38.5095L22.1366 38.5242L22.0873 38.5367L22.0371 38.5473L21.9865 38.5562L21.9355 38.5627L21.8841 38.5672L21.8322 38.5698L21.7803 38.5702L21.7282 38.5685L21.6761 38.5646L21.6243 38.5585L21.5724 38.5503L21.5207 38.54L21.4695 38.5272L21.4187 38.5123L21.3685 38.4952L21.3188 38.4758L21.27 38.4539L21.2224 38.4301L21.1768 38.4046L21.1334 38.3774L21.0919 38.3487L21.0523 38.3184L21.0151 38.2868L20.9799 38.2538L20.9466 38.2196L20.9157 38.1842L20.8869 38.1476L20.8603 38.11L20.8361 38.0715L20.8141 38.0324L20.7944 37.9922L20.7769 37.9513L20.7618 37.9098L20.749 37.8679L20.7389 37.8253L20.7309 37.7825L20.7255 37.7393L20.7224 37.6956L20.722 37.652L20.724 37.6083L20.7287 37.5646L20.7358 37.521L20.7456 37.4773L20.7581 37.4341L20.773 37.3911L20.7907 37.3483L20.8113 37.3061L20.8344 37.2644L20.8603 37.2233ZM20.888 41.2402L18.9205 40.4954L18.9802 40.3864L19.0398 40.2712L19.0995 40.1601L19.1633 40.0466L19.2229 39.9372L19.2824 39.8253L19.3418 39.7139L19.4054 39.6071L19.4648 39.4976L19.5243 39.3923L19.5878 39.2842L19.6473 39.177L19.7065 39.0741L19.7698 38.9686L19.829 38.8638L19.8883 38.7632L19.9516 38.6601L20.0108 38.5577L20.0699 38.4598L20.133 38.359L20.192 38.2589L20.251 38.1599L20.3143 38.0651L20.3733 37.9676L20.4362 37.8707L20.495 37.775L20.554 37.6796L20.6172 37.5888L20.6758 37.4955L20.7389 37.4029L20.7977 37.3109L20.8603 37.2233L22.7349 38.11L22.6761 38.1883L22.6216 38.2823L22.5672 38.3679L22.5086 38.4544L22.4541 38.5451L22.3951 38.6331L22.3363 38.722L22.2816 38.8115L22.2226 38.902L22.1679 38.9969L22.1089 39.089L22.0499 39.1817L21.995 39.2756L21.936 39.3735L21.8767 39.4686L21.8221 39.5648L21.7628 39.6653L21.7036 39.7628L21.6485 39.8614L21.5892 39.9642L21.5298 40.0645L21.4749 40.1653L21.4155 40.2705L21.356 40.3732L21.3007 40.48L21.2412 40.584L21.1818 40.689L21.1221 40.7984L21.067 40.905L21.0073 41.0161L20.9477 41.124L20.888 41.2402ZM18.9205 40.4954L20.888 41.2402L20.8645 41.275L20.8385 41.3157L20.8104 41.3548L20.7804 41.3922L20.7484 41.4281L20.7144 41.4625L20.6788 41.4951L20.6414 41.526L20.6025 41.5554L20.562 41.5829L20.5201 41.6086L20.4769 41.6328L20.4323 41.6548L20.3867 41.6754L20.34 41.6938L20.2923 41.7104L20.2439 41.7251L20.1944 41.7379L20.1444 41.7484L20.0936 41.7573L20.0424 41.764L19.9907 41.7685L19.9386 41.7709L19.8863 41.7714L19.834 41.7696L19.7815 41.7657L19.729 41.7595L19.6764 41.751L19.6241 41.7402L19.5722 41.7273L19.5206 41.7119L19.4693 41.6942L19.4192 41.6743L19.371 41.6527L19.3245 41.6291L19.28 41.6038L19.2372 41.5768L19.1963 41.5485L19.1576 41.5184L19.1207 41.4871L19.0859 41.4542L19.053 41.4203L19.0223 41.3851L18.9936 41.3488L18.9672 41.3114L18.943 41.2731L18.9209 41.234L18.9011 41.1938L18.8838 41.1531L18.8686 41.1116L18.8559 41.0695L18.8455 41.0269L18.8375 40.9839L18.8319 40.9404L18.8291 40.8968L18.8286 40.8529L18.8306 40.8088L18.8353 40.7647L18.8429 40.7206L18.8529 40.6765L18.8656 40.6326L18.8812 40.589L18.8993 40.5455L18.9205 40.4954ZM19.3105 44.1552L17.3557 43.3926L18.9205 40.4954L20.888 41.2402L19.3232 44.1375L19.3105 44.1552ZM17.3557 43.3926L19.3232 44.1375L19.2992 44.1794L19.2729 44.22L19.2443 44.2589L19.2138 44.2963L19.1814 44.3322L19.1473 44.3664L19.1112 44.399L19.0733 44.4297L19.034 44.4589L18.9931 44.4863L18.951 44.5121L18.9073 44.5359L18.8626 44.5579L18.8165 44.578L18.7696 44.5964L18.7216 44.6126L18.6728 44.6271L18.6231 44.6396L18.5727 44.65L18.5219 44.6584L18.4705 44.6649L18.4186 44.6692L18.3663 44.6714H18.314L18.2612 44.6692L18.2085 44.6649L18.1559 44.6584L18.1034 44.6495L18.0511 44.6385L17.999 44.6251L17.9474 44.6096L17.8961 44.5914L17.8462 44.5711L17.7978 44.549L17.7515 44.5253L17.707 44.4995L17.6642 44.4723L17.6235 44.4435L17.5848 44.4133L17.5481 44.3815L17.5135 44.3484L17.4809 44.3141L17.4502 44.2786L17.4219 44.2421L17.3957 44.2045L17.3717 44.1658L17.3499 44.1262L17.3304 44.086L17.3133 44.0449L17.2984 44.0032L17.2859 43.9611L17.276 43.9183L17.2684 43.875L17.2632 43.8314L17.2606 43.7875V43.7434L17.263 43.6993L17.2682 43.655L17.276 43.6109L17.2863 43.5666L17.2995 43.5227L17.3155 43.479L17.3341 43.4356L17.3557 43.3926ZM18.1815 45.5682L16.6951 44.2561L16.7111 44.2434L16.7269 44.23L16.7386 44.2194L16.7544 44.2043L16.7745 44.1883L16.79 44.1716L16.8099 44.1504L16.83 44.1323L16.8499 44.1132L16.8655 44.0931L16.8854 44.0689L16.905 44.0473L16.929 44.0214L16.9489 43.9983L16.9686 43.974L16.9926 43.9423L17.0125 43.9168L17.0362 43.8867L17.0602 43.856L17.0799 43.8279L17.1035 43.7918L17.1275 43.7587L17.1512 43.7248L17.175 43.69L17.1988 43.6541L17.2182 43.6178L17.2461 43.5804L17.2697 43.5387L17.2935 43.5L17.317 43.4602L17.3406 43.4198L17.3685 43.3748L19.3105 44.1552L19.2826 44.2071L19.2443 44.2589L19.2186 44.3158L19.1866 44.3688L19.1544 44.4174L19.1265 44.4691L19.0902 44.5196L19.0578 44.5694L19.0258 44.6184L18.9934 44.6666L18.9612 44.714L18.9289 44.757L18.8924 44.8063L18.8602 44.8512L18.8278 44.8955L18.791 44.9422L18.7588 44.9814L18.7223 45.0267L18.6856 45.0711L18.6529 45.1113L18.6164 45.1541L18.5796 45.1925L18.5386 45.2338L18.5018 45.274L18.4649 45.3138L18.4281 45.3488L18.387 45.3871L18.3501 45.4243L18.3092 45.4606L18.2638 45.4997L18.2225 45.5343L18.1815 45.5682ZM16.6951 44.2561L18.1815 45.5682L18.1404 45.5996L18.0978 45.6285L18.0539 45.6558L18.009 45.6806L17.9629 45.7036L17.9158 45.7243L17.8678 45.7429L17.8192 45.7595L17.7697 45.774L17.7195 45.7866L17.6689 45.7969L17.6179 45.8051L17.5665 45.8114L17.515 45.8155L17.4632 45.8175H17.4115L17.3598 45.8153L17.3084 45.8112L17.2572 45.8049L17.2061 45.7965L17.1558 45.7861L17.1058 45.7738L17.0566 45.7593L17.0079 45.7427L16.9601 45.7241L16.9135 45.7036L16.8676 45.6806L16.8229 45.656L16.7794 45.6292L16.7373 45.6002L16.6966 45.5693L16.6573 45.5365L16.6201 45.5019L16.5853 45.4662L16.5531 45.4295L16.5235 45.3916L16.4963 45.3529L16.4714 45.3134L16.4491 45.273L16.4295 45.2321L16.4122 45.1904L16.3975 45.1484L16.3852 45.1059L16.3752 45.0631L16.3679 45.0198L16.3631 44.9766L16.3605 44.9331L16.3607 44.8897L16.3631 44.8463L16.3681 44.803L16.3756 44.76L16.3854 44.7172L16.3979 44.6748L16.4126 44.6327L16.4299 44.5914L16.4496 44.5505L16.4718 44.5106L16.4963 44.4712L16.5233 44.4327L16.5529 44.3951L16.5849 44.3588L16.619 44.3234L16.656 44.289L16.6951 44.2561ZM16.5804 46.2788L16.158 44.4985L16.1833 44.4941L16.204 44.4896L16.2243 44.4844L16.2444 44.4825L16.2598 44.4762L16.2833 44.4697L16.2985 44.4663L16.3173 44.4619L16.3357 44.4539L16.3538 44.4453L16.3718 44.4433L16.3852 44.4373L16.4022 44.4308L16.4236 44.42L16.4403 44.4126L16.4524 44.4081L16.4684 44.3995L16.4883 44.3906L16.5038 44.3811L16.519 44.3746L16.5339 44.3675L16.5525 44.3564L16.5711 44.345L16.5851 44.3366L16.5987 44.3275L16.619 44.3234L16.6292 44.3046L16.656 44.289L16.6629 44.2795L16.6791 44.2682L16.6951 44.2561L18.1815 45.5682L18.1404 45.5996L18.0978 45.6285L18.0539 45.6558L18.0139 45.6949L17.9672 45.726L17.9242 45.7533L17.8769 45.7835L17.8291 45.8132L17.7854 45.8389L17.7414 45.8642L17.6927 45.8925L17.6439 45.9202L17.5946 45.9439L17.5492 45.9671L17.4995 45.99L17.445 46.0157L17.3946 46.0373L17.3482 46.055L17.2969 46.0758L17.2416 46.0961L17.1899 46.1192L17.1376 46.1348L17.0855 46.1501L17.033 46.1683L16.9759 46.186L16.9269 46.1999L16.8691 46.213L16.8153 46.2293L16.7613 46.2414L16.7068 46.2533L16.6521 46.2645L16.5929 46.2753L16.5804 46.2788ZM16.1454 44.5019L16.5929 46.2753L16.5382 46.2837L16.4839 46.29L16.4297 46.2937L16.3757 46.2952L16.322 46.2943L16.2691 46.2913L16.2166 46.2861L16.1645 46.2788L16.1132 46.2693L16.0629 46.2578L16.0131 46.2444L15.9645 46.2291L15.917 46.2115L15.8705 46.1923L15.8251 46.1713L15.781 46.1484L15.7382 46.124L15.6969 46.0976L15.6571 46.0697L15.6191 46.0403L15.5826 46.0092L15.5478 45.9766L15.5147 45.9424L15.4836 45.907L15.4546 45.87L15.4276 45.8317L15.4027 45.7924L15.3802 45.7515L15.3599 45.7096L15.342 45.6664L15.3266 45.6221L15.3136 45.5767L15.3035 45.5309L15.2961 45.485L15.2918 45.4394L15.2901 45.3942L15.291 45.3493L15.2946 45.3045L15.3009 45.2604L15.3095 45.2168L15.3208 45.1737L15.3344 45.1314L15.3506 45.0897L15.369 45.0488L15.3895 45.0088L15.4124 44.9697L15.4375 44.9317L15.4647 44.8947L15.4939 44.8588L15.5253 44.824L15.5586 44.7905L15.5936 44.7585L15.6305 44.7278L15.6694 44.6986L15.7101 44.671L15.7522 44.6448L15.7961 44.6204L15.8417 44.5977L15.8889 44.5767L15.9373 44.5579L15.9872 44.5408L16.0387 44.5257L16.0914 44.5127L16.1454 44.5019ZM14.1807 45.2163L16.2243 44.6349L16.215 44.6262L16.2012 44.6113L16.1897 44.5981L16.1757 44.5869L16.1625 44.5776L16.1467 44.567L16.1279 44.5549L16.1147 44.5445L16.0944 44.5367L16.0752 44.5305L16.0618 44.5263L16.0497 44.5209L16.0659 44.5106L16.0914 44.5127L16.1052 44.5075L16.1309 44.5039L16.158 44.4985L16.5804 46.2788L16.4839 46.29L16.4092 46.3021L16.3214 46.3114L16.2349 46.3194L16.1498 46.3222L16.0618 46.3235H15.979L15.8893 46.3218L15.7965 46.3149L15.7053 46.3066L15.6154 46.2935L15.5222 46.2751L15.4306 46.2552L15.3402 46.2303L15.2512 46.2003L15.1634 46.169L15.0728 46.1324L14.9833 46.0909L14.9036 46.0442L14.8212 45.9928L14.7441 45.9394L14.6725 45.8847L14.6023 45.825L14.5376 45.7604L14.4784 45.6977L14.4248 45.6335L14.3725 45.5641L14.3256 45.4969L14.2843 45.4282L14.2443 45.3579L14.214 45.2861L14.1807 45.2163ZM14.4576 43.0807L16.4165 43.8325L16.4124 43.8467L16.3869 43.8854L16.3672 43.9276L16.3447 43.9654L16.3279 44.003L16.3125 44.04L16.2944 44.0763L16.2818 44.1089L16.2665 44.1412L16.2568 44.1764L16.2444 44.2038L16.2377 44.2345L16.228 44.2648L16.22 44.2912L16.2131 44.3206L16.2079 44.3456L16.204 44.3707L16.2016 44.3915L16.2006 44.4155L16.1969 44.4353L16.1945 44.4548L16.1936 44.4738L16.1833 44.4941L16.1962 44.514L16.1997 44.5279L16.2006 44.5454L16.2025 44.5583L16.2062 44.5748L16.2068 44.5869L16.2092 44.5985L16.2168 44.6135L16.2243 44.6349L14.1807 45.2163L14.1574 45.1528L14.1313 45.0817L14.115 45.017L14.0958 44.9487L14.0783 44.8796L14.0664 44.8138L14.0558 44.7438L14.0467 44.677L14.0433 44.6061L14.0413 44.5382L14.0407 44.4738L14.0415 44.4051L14.0439 44.3359L14.0476 44.2663L14.0569 44.1999L14.0679 44.1295L14.08 44.062L14.0939 43.9942L14.109 43.9293L14.1256 43.8606L14.1436 43.7949L14.1671 43.7287L14.1881 43.6585L14.2147 43.5951L14.2382 43.5275L14.2676 43.4594L14.2945 43.3945L14.3267 43.329L14.3604 43.2633L14.3915 43.197L14.428 43.1336L14.4618 43.0664L14.4576 43.0807ZM16.4124 43.8467L14.4618 43.0664L14.4868 43.0247L14.5143 42.9847L14.5437 42.9462L14.5752 42.9092L14.6085 42.874L14.6438 42.8403L14.6805 42.8085L14.7192 42.7783L14.7592 42.7497L14.8007 42.7231L14.8437 42.6981L14.888 42.6751L14.9334 42.6537L14.9799 42.6345L15.0274 42.617L15.0759 42.6014L15.1249 42.5878L15.1751 42.5764L15.2257 42.5666L15.2769 42.5593L15.3286 42.5537L15.3804 42.5502L15.4328 42.5491L15.4853 42.55L15.538 42.553L15.5906 42.5582L15.6431 42.5658L15.6954 42.5753L15.7475 42.5874L15.7994 42.6016L15.8506 42.6183L15.9014 42.6373L15.9509 42.6585L15.9987 42.6814L16.0445 42.7061L16.0884 42.7326L16.1305 42.7605L16.1705 42.7901L16.2086 42.8211L16.2444 42.8535L16.2784 42.8872L16.3102 42.922L16.3398 42.9581L16.3672 42.9953L16.3925 43.0335L16.4156 43.0724L16.4364 43.1124L16.455 43.1531L16.4712 43.1946L16.485 43.2365L16.4963 43.2791L16.5053 43.3221L16.5118 43.3653L16.5159 43.4092L16.5175 43.4531L16.5164 43.4972L16.5129 43.5413L16.5066 43.5856L16.4978 43.6297L16.4861 43.6738L16.4718 43.7175L16.4548 43.7609L16.4351 43.8042L16.4124 43.8467ZM18.3579 40.2747L18.3451 40.2959L16.4165 43.8325L14.4576 43.0807L16.3862 39.544L18.3579 40.2747ZM18.3451 40.2959L16.3862 39.544L16.4105 39.5021L16.437 39.4619L16.4656 39.4232L16.4963 39.386L16.5289 39.3504L16.5633 39.3164L16.5996 39.284L16.6374 39.2535L16.6768 39.2246L16.7178 39.1973L16.76 39.172L16.8037 39.1485L16.8486 39.1266L16.8944 39.1067L16.9416 39.0886L16.9895 39.0726L17.0384 39.0583L17.0879 39.046L17.1383 39.0358L17.1891 39.0276L17.2405 39.0216L17.2924 39.0175L17.3445 39.0155L17.3968 39.0157L17.4493 39.0179L17.5018 39.0224L17.5544 39.0291L17.6067 39.0382L17.6588 39.0495L17.7107 39.0631L17.7621 39.0791L17.8131 39.0972L17.8628 39.1176L17.911 39.1398L17.9571 39.164L18.0014 39.1898L18.0438 39.217L18.0842 39.246L18.1227 39.2764L18.1592 39.3082L18.1936 39.3413L18.226 39.3757L18.2563 39.4113L18.2844 39.4479L18.3101 39.4857L18.3339 39.5242L18.3555 39.5637L18.3745 39.6041L18.3916 39.645L18.4061 39.6867L18.4182 39.7291L18.4279 39.7717L18.4352 39.8149L18.4402 39.8583L18.4424 39.9022V39.9461L18.4396 39.9902L18.4342 40.0343L18.4262 40.0784L18.4153 40.1225L18.402 40.1664L18.3857 40.2098L18.3669 40.2531L18.3451 40.2959ZM17.4009 37.4155L19.4103 38.0752L19.3669 38.1686L19.3239 38.2605L19.2819 38.3504L19.2404 38.439L19.1998 38.5257L19.1598 38.6109L19.1205 38.6945L19.082 38.7799L19.0401 38.8601L19.0029 38.9388L18.9666 39.0157L18.9309 39.0912L18.8959 39.1686L18.8615 39.2405L18.828 39.311L18.7952 39.3798L18.7629 39.447L18.7316 39.5125L18.7009 39.5797L18.6709 39.642L18.6417 39.7025L18.6086 39.7615L18.5807 39.8188L18.5537 39.8778L18.5271 39.9318L18.5014 39.9841L18.4765 40.0386L18.4521 40.0877L18.4285 40.135L18.4015 40.1843L18.3793 40.2284L18.3579 40.2747L16.3735 39.5652L16.3949 39.5263L16.4172 39.4822L16.436 39.4399L16.4595 39.3925L16.484 39.3434L16.5088 39.2963L16.5345 39.244L16.5611 39.19L16.5881 39.1379L16.616 39.0806L16.6405 39.0216L16.6696 38.9611L16.6997 38.8988L16.7304 38.8385L16.7617 38.773L16.7939 38.7058L16.8268 38.637L16.8603 38.5666L16.8947 38.4946L16.9297 38.4245L16.9653 38.3491L17.0017 38.2721L17.0388 38.1935L17.0726 38.1133L17.111 38.0348L17.1504 37.9511L17.1904 37.866L17.231 37.7793L17.2725 37.6907L17.3145 37.6007L17.3575 37.5089L17.4009 37.4155ZM19.4103 38.0752L17.4009 37.4155L17.4223 37.3725L17.4463 37.331L17.4722 37.2908L17.5003 37.2521L17.5306 37.2149L17.5628 37.1794L17.5968 37.1453L17.6326 37.1129L17.67 37.0822L17.7092 37.053L17.7498 37.0258L17.7919 37L17.8354 36.976L17.8799 36.954L17.9257 36.9337L17.9727 36.9153L18.0206 36.8989L18.0693 36.8844L18.119 36.8716L18.1694 36.861L18.2204 36.8526L18.2718 36.8459L18.3239 36.8416L18.3762 36.8392H18.429L18.4817 36.8412L18.5347 36.8455L18.5876 36.852L18.6406 36.8608L18.6933 36.8718L18.7459 36.8855L18.7982 36.9012L18.8494 36.9194L18.8989 36.9393L18.9467 36.9611L18.9927 36.9849L19.0368 37.0102L19.0792 37.0372L19.1198 37.0657L19.1583 37.096L19.1951 37.1274L19.2296 37.1602L19.2623 37.1944L19.2928 37.2298L19.3213 37.2663L19.3477 37.3037L19.3717 37.3422L19.3935 37.3818L19.4132 37.422L19.4305 37.4631L19.4456 37.5046L19.4581 37.5469L19.4683 37.5897L19.4761 37.6332L19.4815 37.6768L19.4841 37.7207L19.4843 37.765L19.4819 37.8093L19.4767 37.8539L19.4689 37.8984L19.4585 37.9429L19.4454 37.9872L19.4292 38.0313L19.4103 38.0752ZM19.1371 34.3946L21.0623 33.5719L21.1131 34.2954L21.0512 34.4357L20.9901 34.5743L20.9295 34.7115L20.8651 34.851L20.8057 34.9852L20.7469 35.1181L20.6885 35.2496L20.6308 35.3795L20.5735 35.5081L20.5169 35.6352L20.4609 35.7608L20.4053 35.8885L20.3504 36.0113L20.2962 36.1324L20.2424 36.2521L20.189 36.3706L20.1364 36.4873L20.0843 36.6027L20.0329 36.7201L19.9819 36.8325L19.9315 36.9436L19.8816 37.053L19.8323 37.1611L19.7837 37.2679L19.7313 37.3729L19.6838 37.4801L19.6367 37.5824L19.5904 37.6831L19.5444 37.7823L19.4992 37.8802L19.4544 37.9803L19.4103 38.0752L17.4009 37.4155L17.4463 37.331L17.4897 37.2279L17.5349 37.1299L17.581 37.0307L17.6272 36.93L17.6744 36.8278L17.7219 36.7275L17.7656 36.6224L17.8142 36.5156L17.8635 36.4075L17.9134 36.2982L17.9638 36.1871L18.0148 36.0746L18.0663 35.9642L18.1184 35.8488L18.1709 35.732L18.2243 35.6136L18.2781 35.4938L18.3323 35.3728L18.3873 35.25L18.4428 35.1296L18.4988 35.004L18.5554 34.8769L18.6127 34.7483L18.6704 34.6184L18.7288 34.4869L18.7876 34.354L18.847 34.2198L18.9028 34.0873L18.9633 33.95L19.0245 33.8114L19.0863 33.6711L19.1371 34.3946ZM21.1131 34.2954L19.0863 33.6711L19.1069 33.6277L19.1296 33.5858L19.1546 33.5451L19.1819 33.506L19.2111 33.4684L19.2424 33.4321L19.2755 33.3975L19.3105 33.3644L19.3472 33.3331L19.3857 33.3032L19.4257 33.2751L19.4672 33.2485L19.51 33.2239L19.5541 33.201L19.5995 33.18L19.6458 33.1608L19.6933 33.1435L19.7417 33.1279L19.7912 33.1145L19.8412 33.1031L19.892 33.0936L19.9434 33.086L19.9953 33.0808L20.0476 33.0776L20.1003 33.0765L20.1533 33.0776L20.2063 33.0808L20.2594 33.0864L20.3126 33.0944L20.3658 33.1046L20.4187 33.1171L20.4713 33.132L20.5229 33.1491L20.5729 33.1684L20.6213 33.1893L20.668 33.2122L20.7127 33.2369L20.756 33.263L20.797 33.2909L20.8366 33.3203L20.874 33.3512L20.9094 33.3836L20.9429 33.4172L20.9743 33.452L21.0037 33.4878L21.0309 33.525L21.0623 33.5719L21.0789 33.6022L21.0997 33.642L21.118 33.6828L21.134 33.7241L21.1476 33.7663L21.1589 33.8088L21.1677 33.8521L21.1742 33.8957L21.1781 33.9396L21.1792 33.9839L21.1779 34.0282L21.174 34.073L21.1673 34.1175L21.158 34.1623L21.1457 34.2068L21.1308 34.2513L21.1131 34.2954ZM19.9827 31.7966L21.0623 33.5719L19.1371 34.3946L18.0617 32.623L19.9827 31.7966ZM19.9827 31.7966L18.0617 32.623L18.0377 32.5808L18.0165 32.5382L17.9982 32.495L17.9826 32.4516L17.9696 32.4079L17.9595 32.364L17.9517 32.3199L17.9467 32.2758L17.9443 32.2317L17.9446 32.1878L17.9472 32.144L17.9523 32.1005L17.9599 32.0573L17.9701 32.0147L17.9826 31.9723L17.9973 31.9306L18.0146 31.8895L18.034 31.8491L18.0559 31.8096L18.0801 31.7709L18.1062 31.7333L18.1348 31.6965L18.1655 31.6611L18.1983 31.6265L18.2333 31.5934L18.2703 31.5616L18.3094 31.5312L18.3505 31.5022L18.3935 31.4749L18.4385 31.4492L18.4856 31.4252L18.5345 31.403L18.5846 31.3829L18.6354 31.3651L18.6866 31.3498L18.7383 31.3366L18.7904 31.3258L18.8427 31.3172L18.8952 31.3107L18.9475 31.3066L19.0001 31.3044L19.0524 31.3046L19.1045 31.3068L19.1564 31.3111L19.2076 31.3176L19.2586 31.326L19.309 31.3366L19.3585 31.3489L19.4075 31.3634L19.4555 31.3798L19.5027 31.3982L19.5487 31.4185L19.5934 31.4406L19.6373 31.4646L19.6797 31.4903L19.7205 31.518L19.7601 31.5471L19.7979 31.5783L19.8342 31.6111L19.8686 31.6457L19.9013 31.6818L19.9317 31.7196L19.9605 31.7592L19.9827 31.7966ZM15.3919 28.0525L17.3676 27.3218L17.4158 27.4178L17.4703 27.5198L17.5265 27.621L17.5805 27.7252L17.6406 27.8318L17.7029 27.9448L17.763 28.0568L17.8289 28.1752L17.897 28.2928L17.9668 28.4128L18.0345 28.5393L18.1084 28.6651L18.1841 28.7969L18.2619 28.9279L18.3375 29.0652L18.4192 29.2053L18.5027 29.3447L18.5883 29.4901L18.6758 29.6348L18.7653 29.7856L18.8524 29.9391L18.9458 30.0954L19.0411 30.2508L19.1384 30.4125L19.2376 30.577L19.3388 30.7406L19.4378 30.9105L19.5429 31.083L19.6499 31.2547L19.759 31.4326L19.8699 31.6133L19.9827 31.7966L18.0617 32.623L17.953 32.4433L17.8421 32.2626L17.7329 32.0847L17.6259 31.9058L17.5209 31.7333L17.4137 31.5634L17.3125 31.3928L17.2133 31.2283L17.116 31.0666L17.0207 30.9038L16.9273 30.7476L16.8315 30.5941L16.7421 30.4432L16.6545 30.2917L16.5689 30.1462L16.4855 29.9999L16.4038 29.8598L16.3199 29.7225L16.2421 29.5842L16.1664 29.4523L16.0925 29.3196L16.0162 29.1931L15.9464 29.0658L15.8783 28.9413L15.8123 28.8229L15.744 28.7035L15.6818 28.5905L15.6217 28.477L15.559 28.3659L15.5028 28.2574L15.4483 28.1554L15.3919 28.0525ZM17.3676 27.3218L15.3919 28.0525L15.3707 28.0092L15.3526 27.9658L15.337 27.9219L15.3243 27.8778L15.3143 27.8335L15.307 27.7892L15.3024 27.7451L15.3003 27.7008L15.3009 27.6567L15.3039 27.6128L15.3096 27.5693L15.3175 27.5261L15.3279 27.4833L15.3409 27.4412L15.3562 27.3997L15.3738 27.3586L15.3936 27.3186L15.4159 27.2793L15.4403 27.2408L15.4669 27.2032L15.4957 27.1668L15.5266 27.1316L15.5596 27.0975L15.5947 27.0646L15.6316 27.0333L15.6708 27.0032L15.7118 26.9747L15.7546 26.9477L15.7994 26.9226L15.8461 26.899L15.8947 26.8772L15.9449 26.8573L15.9963 26.8396L16.048 26.8242L16.1003 26.8113L16.1528 26.8007L16.2053 26.7922L16.2581 26.786L16.3108 26.7821L16.3636 26.7803L16.4159 26.7808L16.4682 26.7834L16.5201 26.7881L16.5713 26.7948L16.6223 26.8037L16.6724 26.8145L16.722 26.8273L16.7706 26.8422L16.8186 26.8588L16.8653 26.8774L16.9111 26.8979L16.9556 26.9202L16.9991 26.9444L17.041 26.9704L17.0816 26.998L17.1208 27.0276L17.1582 27.0588L17.1938 27.0914L17.2278 27.126L17.26 27.1621L17.29 27.1997L17.3181 27.2388L17.3441 27.2797L17.3676 27.3218ZM14.5545 25.5459L16.7075 25.7019L16.7034 25.7339L16.7038 25.7196L16.7072 25.7477L16.7096 25.7674L16.7142 25.7927L16.72 25.8202L16.728 25.8532L16.7375 25.8885L16.749 25.9293L16.7619 25.9758L16.7768 26.0208L16.7933 26.0716L16.8117 26.1243L16.8315 26.1792L16.8577 26.2397L16.8813 26.299L16.9065 26.3636L16.9333 26.4304L16.9664 26.4991L16.9971 26.5702L17.0293 26.6435L17.0676 26.7222L17.1035 26.7994L17.1409 26.8826L17.1845 26.9641L17.2256 27.0512L17.2727 27.1405L17.3181 27.2388L17.3676 27.3218L15.3919 28.0525L15.3413 27.9483L15.2884 27.8499L15.2412 27.7533L15.192 27.6593L15.1483 27.5635L15.1022 27.4734L15.0581 27.3819L15.0199 27.2959L14.979 27.2088L14.9401 27.1234L14.9071 27.0404L14.8716 26.9593L14.8377 26.8804L14.8059 26.8L14.7797 26.7252L14.7512 26.6491L14.7246 26.5752L14.6995 26.5032L14.6764 26.4297L14.6548 26.3621L14.6351 26.2927L14.617 26.222L14.6008 26.1535L14.5863 26.0837L14.5735 26.0156L14.5625 25.9462L14.5534 25.8792L14.5502 25.8068L14.5487 25.7365L14.5489 25.6686L14.5508 25.5921L14.5586 25.5139L14.5545 25.5459ZM16.7034 25.7339L14.5586 25.5139L14.5668 25.4676L14.5774 25.4224L14.5908 25.3779L14.6068 25.3347L14.625 25.2923L14.6457 25.251L14.6686 25.2108L14.6937 25.1719L14.7212 25.1343L14.7503 25.0978L14.7817 25.0627L14.815 25.029L14.85 24.9968L14.8867 24.9661L14.9252 24.9369L14.9652 24.9093L15.0067 24.8831L15.0499 24.8589L15.0942 24.8362L15.1399 24.8154L15.1868 24.7964L15.235 24.7793L15.284 24.7642L15.3342 24.751L15.3852 24.74L15.4371 24.7309L15.4896 24.724L15.543 24.7193L15.597 24.7169L15.6515 24.7164L15.7064 24.7186L15.7618 24.7231L15.8167 24.7301L15.8707 24.7391L15.9234 24.7504L15.9751 24.7636L16.0255 24.7789L16.0748 24.7964L16.1225 24.8157L16.1688 24.8368L16.2137 24.8598L16.257 24.8844L16.2987 24.9106L16.3389 24.9384L16.3774 24.9678L16.4139 24.9988L16.4487 25.0312L16.4816 25.0647L16.5127 25.0997L16.5417 25.1358L16.5685 25.1732L16.5933 25.2114L16.6158 25.251L16.6361 25.2912L16.6543 25.3325L16.6699 25.3747L16.6833 25.4175L16.6941 25.4611L16.7023 25.5054L16.7079 25.5502L16.7109 25.5956L16.7111 25.6412L16.7088 25.6874L16.7034 25.7339ZM15.6848 23.7731L17.0864 25.1492L17.0611 25.1695L17.0369 25.1866L17.0101 25.2076L16.9883 25.2253L16.9677 25.2434L16.9485 25.262L16.9305 25.2808L16.9094 25.2964L16.8936 25.3161L16.8791 25.3323L16.8661 25.3455L16.8497 25.366L16.8346 25.3833L16.8248 25.3976L16.8121 25.4157L16.8006 25.4306L16.7905 25.4458L16.7812 25.4648L16.7734 25.4771L16.7665 25.4935L16.7567 25.51L16.7483 25.527L16.7451 25.5409L16.739 25.5586L16.7299 25.5765L16.726 25.5949L16.7235 25.6101L16.7178 25.6256L16.7111 25.6412L16.7103 25.6647L16.7088 25.6874L16.7075 25.7019L14.5545 25.5459L14.5636 25.4829L14.5774 25.4224L14.5856 25.3541L14.5986 25.2923L14.6124 25.227L14.6319 25.1622L14.6526 25.1014L14.6704 25.0407L14.6933 24.9806L14.7216 24.917L14.7473 24.8576L14.7739 24.7984L14.8059 24.7396L14.8392 24.6775L14.8736 24.6231L14.9092 24.5651L14.9462 24.5078L14.984 24.4542L15.0275 24.3976L15.0681 24.3449L15.1096 24.2958L15.1567 24.2398L15.2049 24.1881L15.2544 24.1404L15.3007 24.0894L15.3528 24.042L15.4057 23.9953L15.46 23.9486L15.5156 23.9024L15.5679 23.8602L15.6258 23.8146L15.6848 23.7731ZM18.143 23.1713L17.8728 24.9659L17.8397 24.9637L17.803 24.9629L17.7753 24.9594L17.7435 24.9572L17.7126 24.9562L17.6778 24.9564L17.6519 24.9577L17.6225 24.9601H17.5974L17.5686 24.9648L17.5449 24.9672L17.5256 24.9706L17.4988 24.9754L17.4764 24.9776L17.4545 24.981L17.4288 24.9892L17.4078 24.9914L17.3875 24.9983L17.3676 25.0063L17.3441 25.0121L17.325 25.0188L17.3023 25.0268L17.2803 25.0359L17.2628 25.0463L17.2418 25.0578L17.2211 25.0668L17.1966 25.0772L17.1772 25.0919L17.1536 25.1047L17.1307 25.1183L17.1084 25.133L17.0864 25.1492L15.6848 23.7731L15.7488 23.7288L15.8134 23.6856L15.8787 23.6434L15.9442 23.6026L16.0147 23.5662L16.081 23.5278L16.1524 23.4902L16.2243 23.4575L16.3006 23.426L16.3737 23.3957L16.447 23.3661L16.5248 23.3382L16.5994 23.3112L16.6781 23.2889L16.7576 23.2677L16.8378 23.2444L16.9141 23.2292L16.9952 23.2115L17.0764 23.1951L17.1543 23.1834L17.2409 23.1726L17.324 23.1633L17.4033 23.1586L17.4872 23.1512L17.5676 23.1488L17.6523 23.1475L17.7295 23.1473L17.811 23.1484L17.8933 23.1506L17.9802 23.154L18.0593 23.1622L18.143 23.1713ZM19.6445 23.6752L18.3021 25.0936L18.2876 25.0841L18.2716 25.0759L18.2582 25.0655L18.239 25.0569L18.2286 25.0513L18.2113 25.0448L18.1998 25.0405L18.188 25.0364L18.1756 25.0325L18.1499 25.0227L18.1365 25.0201L18.1266 25.0143L18.1125 25.0126L18.0978 25.0074L18.0827 25.0031L18.0628 24.9985L18.0511 24.9946L18.0308 24.9912L18.0181 24.9879L17.9969 24.9853L17.9794 24.983L17.9571 24.9773L17.9344 24.9756L17.9199 24.9743L17.9009 24.97L17.8728 24.9659L18.143 23.1713L18.188 23.1754L18.2407 23.1797L18.2975 23.1884L18.3453 23.197L18.3931 23.2027L18.4443 23.212L18.491 23.2219L18.5457 23.2321L18.5915 23.2429L18.6456 23.2537L18.6905 23.2651L18.7394 23.2768L18.7878 23.2889L18.836 23.3049L18.8879 23.3177L18.935 23.3345L18.9778 23.3518L19.0286 23.3659L19.0746 23.3836L19.1203 23.402L19.1654 23.4205L19.2145 23.4396L19.2588 23.4625L19.3029 23.4824L19.3464 23.5025L19.3896 23.5265L19.4367 23.5509L19.4791 23.5723L19.521 23.5974L19.5625 23.6229L19.6038 23.649L19.6445 23.6752ZM20.7568 25.0385L18.7893 25.7834L18.7675 25.7462L18.7454 25.703L18.7236 25.6643L18.7018 25.6267L18.6802 25.5902L18.6583 25.5545L18.6369 25.5162L18.6153 25.4827L18.5941 25.4501L18.5729 25.422L18.5515 25.3915L18.5347 25.3617L18.5137 25.337L18.4969 25.3092L18.4802 25.2865L18.4592 25.2607L18.4428 25.2434L18.4262 25.2236L18.4102 25.2011L18.3979 25.1868L18.3816 25.1699L18.3656 25.1539L18.3581 25.1427L18.3464 25.1323L18.3347 25.1196L18.3231 25.1111L18.3129 25.1014L18.3021 25.0936L19.6445 23.6752L19.6937 23.7093L19.7385 23.7407L19.7834 23.7768L19.8243 23.8105L19.8654 23.8451L19.9106 23.8842L19.9473 23.9208L19.9845 23.9551L20.0217 23.9936L20.0629 24.0334L20.0958 24.0706L20.1289 24.1086L20.1663 24.1514L20.1996 24.1881L20.2331 24.2292L20.2664 24.275L20.2955 24.3146L20.329 24.3589L20.3628 24.4006L20.3924 24.4469L20.4261 24.4906L20.4557 24.5353L20.4855 24.5846L20.5154 24.6315L20.5452 24.6793L20.5753 24.7244L20.6053 24.7744L20.6356 24.8252L20.6656 24.8771L20.6961 24.93L20.7263 24.9802L20.7568 25.0385ZM18.7893 25.7834L20.7568 25.0385L20.7743 25.0779L20.7931 25.1211L20.8094 25.1645L20.8228 25.2084L20.8336 25.2525L20.8416 25.2966L20.847 25.3407L20.8498 25.3848V25.4287L20.8476 25.4726L20.8426 25.516L20.8353 25.5592L20.8256 25.6018L20.8135 25.6442L20.799 25.6859L20.7819 25.7268L20.7629 25.7672L20.7413 25.8068L20.7175 25.8452L20.6918 25.8831L20.6637 25.9196L20.6334 25.9553L20.601 25.9896L20.5666 26.0227L20.5301 26.0545L20.4916 26.085L20.4512 26.1139L20.4088 26.1412L20.3645 26.1669L20.3185 26.1911L20.2702 26.2134L20.2205 26.2337L20.1695 26.2518L20.1181 26.2678L20.0662 26.2814L20.0141 26.2927L19.9618 26.3018L19.9093 26.3085L19.8567 26.313L19.8042 26.3152L19.7519 26.3154L19.6998 26.3134L19.6479 26.3093L19.5965 26.3033L19.5457 26.2951L19.4953 26.2849L19.4458 26.2726L19.397 26.2583L19.349 26.2423L19.3018 26.2242L19.256 26.2043L19.2111 26.1824L19.1674 26.1589L19.1252 26.1336L19.0842 26.1064L19.0448 26.0774L19.007 26.0469L18.9707 26.0145L18.9363 25.9806L18.9037 25.9449L18.873 25.9077L18.8444 25.869L18.8179 25.8288L18.7893 25.7834Z" fill="#23B5C9"/>
<path d="M19.7731 25.4108L20.7529 27.2225C21.1381 27.9665 21.4075 28.5225 21.5609 28.8904C21.7144 29.2583 21.9228 29.6236 22.1863 29.9865C22.7131 28.9468 24.6866 24.0661 25.9823 23.3212C26.2646 23.1587 26.5819 23.0962 26.9336 23.1336C27.4224 23.1855 27.7955 23.3465 28.0527 23.6167C28.3103 23.8867 28.4093 24.2194 28.3503 24.6149C28.3477 24.6314 28.3263 24.7423 28.2857 24.9472C28.2453 25.1519 27.327 27.1427 25.5314 30.9193L24.4034 33.2854C24.4986 33.4462 24.5662 33.6248 24.6062 33.8217C24.6464 34.0186 24.6635 34.2004 24.6585 34.3671C24.6118 34.5463 24.4914 34.7218 24.2969 34.8936C24.1023 35.0657 23.8682 35.2038 23.5946 35.3087C23.022 35.9509 22.423 36.7368 21.7976 37.6665C21.172 38.596 20.5408 39.663 19.9043 40.8677L18.3395 43.7649C18.0431 44.2856 17.7426 44.668 17.4383 44.9121C17.1337 45.1559 16.7775 45.3145 16.3691 45.3885C15.7583 45.4909 15.3694 45.3366 15.2025 44.9255C15.0354 44.5143 15.1139 44.0247 15.4371 43.4564L17.3657 39.9198C17.5909 39.4752 17.9374 38.7501 18.4056 37.7452C18.8734 36.7405 19.4382 35.4863 20.0997 33.9831L19.0243 32.2115C17.8096 30.241 16.9284 28.7328 16.3797 27.687C15.8316 26.6408 15.5819 25.9532 15.631 25.6237C15.6781 25.1765 15.9295 24.7891 16.3856 24.461C16.8417 24.1327 17.3825 24.0019 18.0079 24.0685C18.3989 24.11 18.7208 24.2152 18.9732 24.3843C19.2259 24.5533 19.4927 24.8957 19.7731 25.4108Z" fill="#23B5C9"/>
<path d="M11.12 8.68583L10.823 8.78288L8.97478 5.36602L9.26616 5.25577L11.1143 8.67264L11.12 8.68583ZM10.823 8.78288L11.1143 8.67264L11.12 8.68583L11.1245 8.69836L11.1273 8.71155L11.1284 8.72452L11.128 8.73749L11.126 8.75046L11.1228 8.763L11.118 8.77532L11.112 8.78721L11.1046 8.79845L11.0958 8.80904L11.0858 8.8192L11.0748 8.82828L11.0625 8.83649L11.0488 8.84384L11.0344 8.85011L11.0192 8.85508L11.0037 8.85876L10.9881 8.86092L10.9725 8.86178L10.957 8.86157L10.9416 8.85983L10.9267 8.85703L10.912 8.85314L10.898 8.84795L10.8846 8.84168L10.8718 8.83455L10.8599 8.82612L10.8489 8.81682L10.8392 8.80645L10.8303 8.79499L10.823 8.78288ZM12.6906 11.7823L12.3893 11.8705L12.3622 11.8076L12.3326 11.7434L12.3017 11.6779L12.2678 11.6107L12.2323 11.5424L12.1949 11.4721L12.156 11.4004L12.1152 11.3262L12.0724 11.2512L12.0287 11.1734L11.9829 11.0941L11.9355 11.0122L11.8871 10.9283L11.8376 10.842L11.7868 10.7528L11.7343 10.6618L11.6815 10.5677L11.6279 10.4709L11.5726 10.3708L11.5168 10.2683L11.4608 10.1624L11.4038 10.0541L11.3461 9.94194L11.2881 9.8263L11.2296 9.70741L11.1714 9.58485L11.1124 9.45882L11.0534 9.32934L10.9942 9.19511L10.9349 9.05741L10.8757 8.91604L10.8173 8.7697L11.12 8.68583L11.1783 8.82871L11.2363 8.96835L11.2942 9.10389L11.3521 9.23466L11.4098 9.36242L11.4675 9.48628L11.5257 9.60668L11.583 9.7234L11.64 9.83689L11.6965 9.94691L11.7522 10.0543L11.8082 10.1581L11.8627 10.2597L11.9167 10.3576L11.9703 10.4532L12.0231 10.5463L12.0743 10.6373L12.1251 10.7253L12.1746 10.8116L12.223 10.8954L12.2704 10.9774L12.3162 11.058L12.3612 11.1358L12.404 11.213L12.4461 11.288L12.4863 11.3619L12.525 11.4343L12.5618 11.5057L12.5966 11.5759L12.6301 11.6457L12.661 11.7143L12.6906 11.7823ZM13.5723 13.8413L13.8663 13.9463L13.5831 13.9636L13.5362 13.8983L13.49 13.8337L13.4448 13.7689L13.3996 13.7036L13.3553 13.6387L13.3114 13.5741L13.268 13.5086L13.226 13.4435L13.1839 13.3781L13.1426 13.3132L13.1019 13.2484L13.0622 13.1829L13.0226 13.1174L12.9837 13.0521L12.9452 12.987L12.908 12.9213L12.8709 12.8565L12.8343 12.7905L12.7989 12.7252L12.7636 12.6597L12.7288 12.594L12.6947 12.5285L12.6616 12.4626L12.629 12.3969L12.5968 12.3314L12.5656 12.2655L12.5345 12.2002L12.504 12.1343L12.4746 12.0681L12.4455 12.0028L12.4167 11.9367L12.3893 11.8705L12.6906 11.7823L12.718 11.8463L12.7455 11.9103L12.7734 11.9747L12.8028 12.0387L12.832 12.1025L12.8618 12.1669L12.8929 12.2307L12.9238 12.2949L12.9556 12.3589L12.9887 12.4226L13.0215 12.4868L13.055 12.5504L13.089 12.6141L13.1244 12.6781L13.1597 12.7419L13.1955 12.8059L13.2327 12.8694L13.2699 12.9336L13.3075 12.9976L13.3458 13.0609L13.3855 13.1243L13.4253 13.1883L13.4653 13.2522L13.5062 13.3156L13.5481 13.3794L13.5903 13.4427L13.6328 13.5065L13.6759 13.5704L13.7197 13.6336L13.7649 13.6971L13.8099 13.7609L13.8555 13.824L13.5723 13.8413ZM13.5831 13.9636L13.8555 13.824L13.8633 13.8361L13.8695 13.8484L13.8741 13.8612L13.8771 13.8739L13.8786 13.8869V13.8999L13.8771 13.9128L13.8743 13.9254L13.8663 13.9463L13.8572 13.9613L13.8488 13.9723L13.8393 13.9824L13.8282 13.992L13.8159 14.0006L13.8025 14.0084L13.7883 14.0149L13.7733 14.0201L13.7584 14.0239L13.7431 14.0265L13.7277 14.0278H13.7122L13.697 14.0265L13.6819 14.0242L13.6672 14.0205L13.6529 14.0157L13.6391 14.0097L13.6261 14.0028L13.614 13.9945L13.6026 13.9852L13.5924 13.9749L13.5831 13.9636ZM20.9547 1.04544L21.1345 1.26722L20.917 1.41118L20.6868 1.60119L20.4467 1.83335L20.1979 2.10527L19.943 2.41396L19.6821 2.75592L19.4171 3.12837L19.1488 3.52827L18.8778 3.95216L18.6054 4.39853L18.3326 4.86306L18.0594 5.34359L17.7872 5.83752L17.5168 6.34204L17.2494 6.85326L16.9851 7.36902L16.725 7.88651L16.4695 8.40357L16.2205 8.91609L15.9775 9.42234L15.7419 9.91843L15.5152 10.4024L15.2966 10.8711L15.0883 11.3222L14.8902 11.7523L14.7037 12.1587L14.5293 12.5387L14.3678 12.8894L14.2201 13.2084L14.0866 13.4924L13.9683 13.7391L13.8663 13.9463L13.5723 13.8413L13.6735 13.6383L13.7904 13.3939L13.9227 13.1107L14.0703 12.7929L14.2318 12.4423L14.4063 12.0623L14.5928 11.6559L14.7908 11.2258L14.9992 10.7746L15.2177 10.3047L15.4458 9.81986L15.6814 9.32247L15.9244 8.81536L16.1747 8.30154L16.4302 7.78361L16.6911 7.26397L16.9568 6.74604L17.2254 6.23266L17.4972 5.72641L17.7706 5.23032L18.0451 4.74633L18.3205 4.27791L18.595 3.82808L18.8687 3.399L19.1408 2.99391L19.4106 2.61498L19.6767 2.26566L19.9402 1.94791L20.199 1.6643L20.4542 1.41745L20.7056 1.21058L20.9547 1.04544ZM21.1345 1.26722L20.9547 1.04544L20.9685 1.0383L20.983 1.03246L20.9979 1.02793L21.013 1.02468L21.0284 1.02274L21.0437 1.02209L21.0591 1.02274L21.0742 1.02447L21.0891 1.02749L21.1036 1.0316L21.1176 1.037L21.131 1.04349L21.1438 1.05106L21.1557 1.05992L21.1665 1.06965L21.1764 1.08067L21.1849 1.09234L21.1918 1.10445L21.1972 1.11698L21.2011 1.12974L21.2032 1.14271L21.2041 1.15568L21.2035 1.16843L21.2013 1.18119L21.1976 1.19372L21.1927 1.20604L21.1864 1.21771L21.1786 1.22917L21.1695 1.23976L21.1591 1.24971L21.1475 1.259L21.1345 1.26722ZM22.859 0.669531L22.8188 0.935409L22.7607 0.929789L22.7015 0.925249L22.6442 0.921358L22.5862 0.918766L22.5296 0.917034L22.4725 0.917251L22.4159 0.917034L22.3606 0.918766L22.3052 0.921574L22.2505 0.925032L22.1954 0.930005L22.1412 0.935625L22.0878 0.942111L22.0344 0.949892L21.9814 0.958756L21.9289 0.968699L21.8768 0.979289L21.8249 0.991611L21.7737 1.00437L21.722 1.0182L21.6714 1.03311L21.6213 1.04911L21.5714 1.0664L21.5214 1.08413L21.4715 1.10358L21.4231 1.12347L21.374 1.14465L21.3254 1.16735L21.2774 1.19048L21.2294 1.21491L21.1823 1.24063L21.1345 1.26722L20.9547 1.04544L21.013 1.02468L21.0608 0.987071L21.1148 0.959619L21.1693 0.93303L21.224 0.908173L21.2791 0.883963L21.3353 0.861048L21.3913 0.839432L21.4477 0.818683L21.505 0.799226L21.5625 0.781071L21.6209 0.763992L21.6786 0.747996L21.7376 0.733083L21.7968 0.719895L21.8563 0.707143L21.9166 0.696334L21.9769 0.686174L22.0376 0.677529L22.0988 0.669745L22.1604 0.663262L22.2216 0.658289L22.2841 0.653966L22.3467 0.651157L22.4099 0.649428L22.4725 0.648346L22.5357 0.649428L22.6001 0.651157L22.6641 0.653749L22.7291 0.657643L22.7931 0.663046L22.859 0.669531ZM25.0738 1.62972L24.8252 1.79789L24.7816 1.75336L24.7366 1.70991L24.691 1.66776L24.6437 1.62626L24.5955 1.58649L24.5462 1.54801L24.4954 1.51018L24.4439 1.47408L24.391 1.43885L24.3363 1.40448L24.2812 1.37141L24.2248 1.33963L24.1668 1.30915L24.1074 1.2791L24.0471 1.25036L23.9855 1.2229L23.9219 1.19675L23.8577 1.17146L23.7924 1.14725L23.7252 1.1239L23.6573 1.1025L23.5879 1.08175L23.5166 1.06143L23.4444 1.04306L23.3713 1.02598L23.2963 1.00934L23.22 0.994203L23.1431 0.980153L23.0637 0.967401L22.9836 0.955512L22.9023 0.945136L22.8188 0.935409L22.859 0.669531L22.9472 0.679256L23.035 0.690928L23.1212 0.703683L23.2058 0.717733L23.2901 0.73265L23.3724 0.749076L23.4539 0.766587L23.5343 0.785825L23.613 0.806361L23.6904 0.827544L23.7671 0.850455L23.8428 0.874882L23.9161 0.900389L23.9891 0.926761L24.0607 0.955079L24.1303 0.984693L24.1997 1.01517L24.2673 1.04695L24.3333 1.08002L24.3985 1.11482L24.4623 1.15092L24.5252 1.18832L24.586 1.22658L24.6454 1.26614L24.7042 1.30742L24.761 1.34957L24.8168 1.39324L24.8711 1.4382L24.9236 1.48402L24.9753 1.53137L25.0254 1.58L25.0738 1.62972ZM24.8252 1.79789L25.0738 1.62972L25.0833 1.64139L25.0913 1.65307L25.0978 1.66517L25.1028 1.67749L25.1063 1.69024L25.1082 1.703L25.1086 1.71575L25.1078 1.72851L25.1052 1.74126L25.1015 1.7538L25.0961 1.7659L25.0894 1.77757L25.0814 1.78881L25.0719 1.79919L25.0611 1.80913L25.049 1.81821L25.0358 1.82621L25.022 1.83291L25.0077 1.83832L24.9928 1.84242L24.9779 1.84523L24.9625 1.84696L24.9472 1.84739L24.932 1.84653L24.9169 1.84458L24.9022 1.84134L24.8877 1.8368L24.8737 1.83118L24.8605 1.82448L24.8477 1.81648L24.8361 1.8074L24.8252 1.79789ZM25.6694 3.61386L25.3529 3.57928L25.3618 3.51335L25.3691 3.44699L25.3752 3.38149L25.3795 3.31643L25.3821 3.25288L25.3823 3.18932L25.3821 3.12707L25.3793 3.06503L25.3749 3.00407L25.3691 2.94398L25.3613 2.88497L25.3522 2.82596L25.3414 2.76802L25.3289 2.71096L25.3153 2.65432L25.2993 2.59899L25.2822 2.54343L25.2632 2.48939L25.2424 2.436L25.2202 2.38217L25.1966 2.33008L25.1707 2.27863L25.1437 2.22762L25.1149 2.17768L25.0842 2.12775L25.0526 2.07868L25.0194 2.03048L24.9833 1.98271L24.9465 1.9358L24.9076 1.8889L24.8674 1.84264L24.8252 1.79789L25.0738 1.62972L25.1212 1.68095L25.1666 1.73239L25.2102 1.78449L25.2522 1.83788L25.2917 1.8917L25.3302 1.94639L25.3669 2.00195L25.4011 2.05793L25.4337 2.11522L25.4647 2.17272L25.4928 2.23151L25.5202 2.29096L25.5451 2.34997L25.5684 2.41071L25.5896 2.4721L25.6093 2.5337L25.6266 2.59639L25.6428 2.65951L25.6566 2.72392L25.6687 2.78834L25.6791 2.85341L25.6869 2.91977L25.6936 2.98635L25.6979 3.05336L25.7007 3.12058L25.7022 3.18932L25.7007 3.25806L25.6981 3.3281L25.6938 3.39835L25.6877 3.46903L25.6795 3.54058L25.6694 3.61386ZM25.5468 4.24484L25.2316 4.2016L25.2388 4.16594L25.2455 4.13114L25.2522 4.09763L25.2586 4.06499L25.2649 4.03343L25.271 4.00295L25.2766 3.97334L25.2822 3.94502L25.2876 3.91757L25.2928 3.8912L25.2978 3.86591L25.3025 3.8417L25.3071 3.81835L25.3114 3.79587L25.3155 3.77512L25.3194 3.75502L25.3231 3.73686L25.3265 3.7174L25.33 3.70033L25.333 3.68606L25.3358 3.67115L25.3384 3.6558L25.341 3.64283L25.3451 3.62035L25.3479 3.60457L25.3505 3.59117L25.3529 3.57928L25.6694 3.61386L25.667 3.62878L25.6644 3.64348L25.6603 3.66444L25.6562 3.68693L25.6536 3.69989L25.651 3.71222L25.6482 3.72713L25.6451 3.74442L25.6417 3.7615L25.6382 3.77793L25.6346 3.79825L25.6307 3.81835L25.6266 3.83997L25.6222 3.86159L25.6177 3.88493L25.6129 3.90914L25.608 3.93443L25.6028 3.9608L25.5974 3.98825L25.5918 4.01657L25.5861 4.04618L25.5801 4.07667L25.5738 4.10823L25.5673 4.14087L25.5606 4.17437L25.5539 4.20917L25.5468 4.24484ZM20.3423 15.5371L20.0461 15.4373L20.3587 14.7799L20.6618 14.1418L20.9551 13.5234L21.2387 12.9246L21.5126 12.3457L21.7767 11.7865L22.0305 11.247L22.2752 10.7271L22.5104 10.2271L22.7358 9.74724L22.9516 9.28681L23.1573 8.84584L23.3538 8.42475L23.5404 8.02421L23.7172 7.64247L23.8845 7.28062L24.0419 6.93843L24.1897 6.61657L24.3272 6.31394L24.4556 6.03142L24.5743 5.76813L24.6832 5.52538L24.782 5.30166L24.8715 5.09825L24.9515 4.91494L25.0211 4.75109L25.0816 4.60734L25.1318 4.48327L25.1722 4.38016L25.2024 4.29737L25.2221 4.23663L25.2316 4.2016L25.5468 4.24484L25.5321 4.30191L25.5085 4.37303L25.4761 4.461L25.4344 4.56844L25.3829 4.69468L25.3224 4.84015L25.2515 5.0053L25.1715 5.19077L25.082 5.39504L24.982 5.61877L24.873 5.86281L24.7543 6.12609L24.6259 6.40948L24.4872 6.71211L24.3393 7.03484L24.1819 7.37703L24.0146 7.73888L23.8378 8.12062L23.6513 8.52246L23.4548 8.94354L23.249 9.38452L23.0333 9.84494L22.8078 10.3257L22.5726 10.8257L22.3279 11.3455L22.0729 11.8851L21.8087 12.4443L21.5348 13.0232L21.2512 13.6219L20.9579 14.2404L20.6548 14.8785L20.3423 15.5371ZM20.0461 15.4373L20.3423 15.5371L20.3356 15.549L20.3274 15.5605L20.3181 15.5713L20.3077 15.581L20.2964 15.5899L20.2841 15.5976L20.2712 15.6043L20.2573 15.61L20.2431 15.6145L20.2281 15.618L20.213 15.6201L20.1977 15.621L20.1821 15.6208L20.1663 15.619L20.1507 15.616L20.1354 15.6117L20.1205 15.6061L20.1069 15.5994L20.0941 15.5916L20.0824 15.5827L20.0721 15.5732L20.0628 15.5631L20.0548 15.552L20.0479 15.5404L20.0427 15.5285L20.0386 15.5159L20.036 15.5032L20.0349 15.4902L20.0353 15.4772L20.0373 15.4641L20.0409 15.4509L20.0461 15.4373ZM17.9236 20.0093L17.9187 19.9001L20.0461 15.4373L20.3423 15.5371L18.2148 20L17.9236 20.0093ZM17.9187 19.9001L18.2148 20L18.2079 20.0125L18.1999 20.024L18.1906 20.0348L18.18 20.0445L18.1688 20.0534L18.1564 20.0609L18.1433 20.0676L18.1294 20.0733L18.1152 20.0778L18.1002 20.081L18.0851 20.0832L18.0695 20.0841L18.054 20.0839L18.0384 20.0821L18.0226 20.0791L18.0073 20.0746L17.9924 20.0689L17.9788 20.062L17.966 20.0542L17.9543 20.0454L17.944 20.0359L17.9347 20.0255L17.9236 20.0093L17.9174 19.9967L17.9126 19.9846L17.9094 19.9719L17.9076 19.9591L17.9072 19.9459L17.9085 19.9328L17.9113 19.9196L17.9187 19.9001ZM18.6067 20.939L18.2915 20.984L18.2844 20.95L18.2775 20.9169L18.2695 20.8837L18.2621 20.8501L18.2537 20.8179L18.2455 20.7857L18.2364 20.7527L18.2278 20.7211L18.218 20.6885L18.2088 20.6567L18.1986 20.6256L18.1886 20.5946L18.1776 20.5629L18.1672 20.5322L18.156 20.5015L18.1443 20.4704L18.1329 20.4403L18.121 20.4107L18.1091 20.3806L18.0966 20.3508L18.0834 20.321L18.0711 20.292L18.057 20.2628L18.0434 20.2343L18.0296 20.2049L18.0153 20.1768L18.0006 20.1483L17.9859 20.12L17.9708 20.0925L17.9554 20.0646L17.944 20.0359L17.9236 20.0093L18.2098 19.8908L18.2271 19.9202L18.2442 19.9501L18.2608 19.9801L18.2773 20.0106L18.2933 20.0411L18.3093 20.0717L18.3244 20.1029L18.3395 20.1336L18.3544 20.1651L18.3685 20.1965L18.3834 20.2285L18.3966 20.2605L18.4104 20.2925L18.4236 20.3247L18.4368 20.3573L18.4496 20.3904L18.4612 20.4228L18.4733 20.4557L18.485 20.4894L18.496 20.522L18.5073 20.5564L18.5174 20.5905L18.528 20.6245L18.5377 20.658L18.5477 20.693L18.5568 20.7269L18.5663 20.7622L18.5747 20.7978L18.5834 20.8322L18.5914 20.8677L18.5996 20.9038L18.6067 20.939ZM18.9428 21.9707L18.6264 22.0096L18.6296 22.0222L18.6221 21.9962L18.6132 21.9694L18.6048 21.9424L18.595 21.9143L18.5857 21.886L18.5754 21.8577L18.5646 21.8285L18.5542 21.7982L18.5429 21.7688L18.5315 21.7379L18.5198 21.7068L18.5081 21.6752L18.4962 21.6428L18.4844 21.6106L18.4725 21.579L18.4604 21.5458L18.448 21.5118L18.4362 21.4787L18.4245 21.4444L18.4128 21.4109L18.4007 21.3763L18.3895 21.3419L18.3778 21.3075L18.367 21.2717L18.356 21.2358L18.3458 21.201L18.3354 21.1655L18.3261 21.1294L18.3166 21.0925L18.3075 21.0568L18.2995 21.0209L18.2915 20.984L18.6067 20.939L18.6134 20.9716L18.6214 21.0054L18.6292 21.0389L18.6374 21.0715L18.6467 21.1046L18.6558 21.1379L18.6659 21.1718L18.6757 21.2047L18.6865 21.2371L18.6968 21.2706L18.7081 21.3037L18.7189 21.3365L18.7306 21.37L18.7422 21.4022L18.7541 21.4353L18.7656 21.4671L18.7777 21.4991L18.7896 21.5319L18.8015 21.5641L18.8134 21.5953L18.825 21.6268L18.8367 21.6579L18.8482 21.6889L18.8594 21.7204L18.8706 21.7507L18.8814 21.7812L18.8918 21.8116L18.9024 21.8417L18.9121 21.8711L18.9219 21.9003L18.9307 21.9292L18.9396 21.9582L18.9428 21.9707ZM18.6296 22.0222L18.9396 21.9582L18.9428 21.9707L18.9441 21.985L18.9439 21.9984L18.9422 22.0114L18.9389 22.0241L18.9344 22.0364L18.9284 22.0483L18.921 22.0596L18.9124 22.0704L18.9026 22.0803L18.8918 22.0894L18.8799 22.0976L18.867 22.105L18.8531 22.1112L18.8382 22.1164L18.8227 22.1203L18.8067 22.1229L18.7907 22.124H18.7749L18.7593 22.1225L18.7442 22.1197L18.7295 22.1158L18.7154 22.1108L18.702 22.1047L18.6893 22.0976L18.6774 22.0894L18.6666 22.0803L18.6566 22.0702L18.648 22.0594L18.6404 22.0477L18.6344 22.0354L18.6296 22.0222ZM19.132 23.753L18.9007 23.5679L18.9186 23.55L18.934 23.5288L18.9487 23.5031L18.961 23.4733L18.9709 23.4387L18.9774 23.4008L18.9822 23.3587L18.9841 23.3131L18.9826 23.264L18.9781 23.213L18.9714 23.1592L18.9623 23.1036L18.9515 23.0468L18.9381 22.988L18.9229 22.929L18.9063 22.8693L18.8877 22.8084L18.8689 22.7478L18.8492 22.6875L18.8289 22.6272L18.8079 22.5675L18.787 22.5088L18.766 22.4515L18.7457 22.3951L18.7262 22.3397L18.7076 22.287L18.6897 22.2351L18.6733 22.1856L18.6586 22.1387L18.646 22.0939L18.6404 22.0477L18.6264 22.0096L18.9428 21.9707L18.9439 21.9984L18.9573 22.0343L18.9686 22.0734L18.982 22.1164L18.9971 22.1625L19.0137 22.2113L19.0323 22.2632L19.0518 22.3172L19.0721 22.3737L19.0931 22.4322L19.114 22.4919L19.135 22.5528L19.1566 22.6149L19.1776 22.6787L19.1977 22.7422L19.2163 22.8062L19.2342 22.871L19.2506 22.9357L19.2653 22.9997L19.2787 23.0639L19.2891 23.1276L19.2967 23.1901L19.3012 23.2524L19.3027 23.3131L19.3008 23.3734L19.2952 23.4324L19.2835 23.491L19.2671 23.5476L19.2448 23.603L19.2154 23.6559L19.1776 23.7065L19.132 23.753ZM16.6686 23.8466L16.4135 23.6858L16.4747 23.6442L16.5426 23.6218L16.6135 23.6051L16.6876 23.5932L16.7644 23.5848L16.8437 23.5794L16.9267 23.5768L17.0108 23.5766L17.0983 23.5779L17.1889 23.5809L17.2799 23.5855L17.3733 23.5909L17.4682 23.5973L17.5633 23.6049L17.6586 23.6123L17.7537 23.6198L17.8486 23.6272L17.9431 23.6339L18.0358 23.6401L18.1268 23.6458L18.2157 23.6503L18.3015 23.6533L18.3845 23.6548L18.4643 23.6544L18.5393 23.652L18.6082 23.6475L18.6722 23.6406L18.7297 23.6319L18.7803 23.6213L18.822 23.6092L18.8568 23.5952L18.8823 23.5816L18.9007 23.5679L19.132 23.753L19.0747 23.796L19.0107 23.8304L18.9435 23.857L18.8715 23.8786L18.7971 23.8944L18.7198 23.9065L18.6393 23.9142L18.5557 23.9196L18.4703 23.922L18.3832 23.9225L18.2928 23.9209L18.2005 23.9179L18.1069 23.9134L18.012 23.9077L17.9167 23.9015L17.821 23.8939L17.7248 23.8866L17.6288 23.879L17.5343 23.8716L17.4405 23.865L17.3495 23.8585L17.26 23.8531L17.1725 23.8485L17.0897 23.8455L17.0095 23.8442L16.9327 23.8444L16.8623 23.847L16.7968 23.8515L16.7378 23.8578L16.6861 23.8667L16.6424 23.8768L16.6074 23.8881L16.6686 23.8466ZM16.4747 23.6442L16.6074 23.8881L16.5923 23.8931L16.5769 23.8967L16.5614 23.8991L16.5458 23.9L16.5303 23.8998L16.5151 23.8982L16.5 23.8954L16.4855 23.8915L16.4712 23.8866L16.4578 23.8803L16.4451 23.8729L16.4332 23.8647L16.4222 23.8554L16.4122 23.8451L16.4036 23.8338L16.396 23.8217L16.39 23.809L16.3856 23.796L16.3828 23.783L16.3817 23.7698L16.382 23.7569L16.3837 23.7441L16.3869 23.7314L16.3917 23.7193L16.3977 23.7074L16.4051 23.6961L16.4135 23.6858L16.4235 23.6754L16.4347 23.6661L16.4468 23.6579L16.4602 23.6505L16.4747 23.6442ZM13.2906 28.279L13.0131 28.1475L13.1236 27.9835L13.2336 27.8211L13.344 27.6607L13.4536 27.5012L13.5637 27.3434L13.6726 27.1871L13.7813 27.0332L13.8903 26.8802L13.9984 26.7287L14.1069 26.5789L14.2143 26.4312L14.322 26.2844L14.429 26.1394L14.5362 25.9961L14.6425 25.8541L14.7493 25.714L14.855 25.5756L14.9611 25.4384L15.0671 25.3031L15.1719 25.1691L15.2772 25.0368L15.3816 24.906L15.4862 24.7767L15.5906 24.6494L15.6939 24.5232L15.7977 24.3989L15.9012 24.2759L16.0043 24.1548L16.1066 24.0353L16.2093 23.917L16.3115 23.8007L16.4135 23.6858L16.6686 23.8466L16.5679 23.9603L16.4669 24.0757L16.3655 24.1927L16.2633 24.3113L16.1611 24.4315L16.0588 24.5532L15.9563 24.6766L15.853 24.8016L15.7499 24.928L15.6466 25.056L15.5422 25.1859L15.4382 25.3173L15.3334 25.4501L15.2288 25.5845L15.1239 25.7205L15.0182 25.8588L14.9127 25.998L14.8064 26.1388L14.7005 26.2812L14.5935 26.4254L14.4867 26.5709L14.3792 26.7185L14.272 26.8674L14.1639 27.0177L14.0563 27.1698L13.9476 27.3237L13.8386 27.4787L13.7299 27.6357L13.6203 27.7939L13.5111 27.9543L13.4011 28.1158L13.2906 28.279ZM13.0131 28.1475L13.2906 28.279L13.282 28.2904L13.2721 28.301L13.2613 28.3105L13.2494 28.319L13.2366 28.3265L13.2234 28.3328L13.2094 28.338L13.1949 28.3419L13.18 28.3449L13.1646 28.3464L13.1493 28.3468L13.1339 28.346L13.1186 28.344L13.1035 28.3406L13.0883 28.3358L13.0738 28.3298L13.06 28.3224L13.0475 28.3142L13.0362 28.3051L13.0261 28.2952L13.0172 28.2844L13.0096 28.2731L13.0034 28.2615L12.9986 28.2491L12.9952 28.2366L12.9932 28.2238L12.9928 28.2109L12.9936 28.1981L12.9962 28.1852L13.0001 28.1724L13.0057 28.1599L13.0131 28.1475ZM9.72636 34.3062L9.43498 34.196L9.5476 33.9841L9.66 33.7734L9.7724 33.5637L9.88546 33.3557L9.99765 33.1495L10.1101 32.9442L10.2222 32.7408L10.3349 32.5391L10.447 32.3383L10.559 32.1398L10.6716 31.9423L10.7834 31.7462L10.8951 31.5521L11.0075 31.3593L11.1193 31.1678L11.2308 30.9777L11.3432 30.7899L11.4546 30.6029L11.5661 30.4175L11.6781 30.2341L11.7894 30.0519L11.9007 29.8708L12.0125 29.692L12.1236 29.5143L12.2353 29.3382L12.3462 29.1633L12.458 28.9901L12.5689 28.8189L12.6796 28.6486L12.7911 28.48L12.9018 28.3127L13.0131 28.1475L13.2906 28.279L13.1806 28.4441L13.0699 28.6101L12.9597 28.7779L12.849 28.9469L12.7381 29.1181L12.6277 29.2904L12.5168 29.464L12.4063 29.6393L12.2952 29.8161L12.1843 29.9949L12.073 30.1747L11.9617 30.3561L11.851 30.5394L11.7395 30.7235L11.6281 30.9097L11.517 31.0975L11.4055 31.2862L11.2937 31.4769L11.1826 31.6688L11.0709 31.8629L10.9591 32.0577L10.8478 32.2544L10.7358 32.4528L10.6236 32.6524L10.5123 32.854L10.4001 33.0566L10.2877 33.2606L10.1755 33.4669L10.0638 33.6739L9.95138 33.8827L9.83898 34.0935L9.72636 34.3062ZM9.43498 34.196L9.72636 34.3062L9.71901 34.3172L9.71037 34.3287L9.70064 34.3391L9.68983 34.3483L9.67816 34.3568L9.6654 34.3641L9.65222 34.3706L9.63817 34.3758L9.62369 34.3799L9.60877 34.3827L9.59342 34.3844L9.57807 34.3849L9.56251 34.384L9.54695 34.3819L9.53139 34.3784L9.51626 34.3734L9.50177 34.3674L9.48815 34.36L9.47583 34.3518L9.46459 34.3427L9.45465 34.3328L9.44578 34.3222L9.43843 34.3112L9.43217 34.2993L9.42741 34.2872L9.42395 34.2746L9.42201 34.2619L9.42136 34.2489L9.42244 34.2357L9.42503 34.2228L9.42914 34.2098L9.43498 34.196ZM6.77317 39.7731L6.48373 39.6603L9.43498 34.196L9.72636 34.3062L6.77317 39.7731ZM6.48373 39.6603L6.77317 39.7731L6.76344 39.7885L6.75414 39.7993L6.74377 39.8092L6.73231 39.8181L6.71999 39.8259L6.70702 39.8326L6.69319 39.8384L6.6787 39.843L6.66401 39.8464L6.64888 39.8486L6.63331 39.8494L6.61775 39.8492L6.60219 39.8477L6.58662 39.8447L6.57127 39.8404L6.55636 39.8347L6.54231 39.828L6.52934 39.8203L6.51767 39.8114L6.50708 39.8019L6.49778 39.7915L6.48956 39.7805L6.48287 39.769L6.47746 39.7569L6.47335 39.7444L6.47076 39.7316L6.46968 39.7187L6.47011 39.7057L6.47205 39.6925L6.47551 39.6795L6.48373 39.6603ZM5.03977 41.9762L4.81972 41.7821L4.8716 41.7398L4.92283 41.6965L4.97535 41.6509L5.02702 41.604L5.0789 41.5556L5.13056 41.5057L5.18287 41.4536L5.23496 41.4006L5.28663 41.3459L5.33872 41.2897L5.39147 41.2316L5.44291 41.1726L5.49565 41.1112L5.54753 41.0491L5.59963 40.9849L5.65194 40.9197L5.70382 40.8522L5.75613 40.7835L5.80866 40.7128L5.86054 40.641L5.91285 40.5682L5.96494 40.4925L6.01725 40.4162L6.06934 40.3382L6.12144 40.2586L6.17354 40.1776L6.22541 40.0948L6.27773 40.01L6.3296 39.9244L6.38148 39.8373L6.43315 39.7483L6.48373 39.6603L6.77317 39.7731L6.72064 39.865L6.66768 39.9558L6.61451 40.0451L6.56133 40.1328L6.50815 40.2189L6.45498 40.3034L6.40159 40.3866L6.34819 40.4683L6.2948 40.5485L6.24119 40.627L6.1878 40.7035L6.13419 40.7798L6.08016 40.8537L6.02633 40.9261L5.97272 40.997L5.91825 41.0666L5.86464 41.1349L5.80996 41.2013L5.75548 41.2668L5.70187 41.3299L5.64654 41.3924L5.59249 41.4527L5.53781 41.5119L5.48269 41.5696L5.42799 41.6256L5.37309 41.6799L5.31754 41.7333L5.2622 41.7847L5.20665 41.8347L5.15153 41.8833L5.09554 41.9309L5.03977 41.9762ZM4.81972 41.7821L5.03977 41.9762L5.02745 41.9851L5.01426 41.9929L5.00043 41.9994L4.98616 42.0046L4.97146 42.0085L4.95633 42.0113L4.9412 42.0128L4.92585 42.0132L4.9105 42.0121L4.89537 42.01L4.88046 42.0067L4.86598 42.0022L4.85193 41.9964L4.83852 41.9892L4.82599 41.9812L4.8141 41.9717L4.8035 41.9613L4.79421 41.9503L4.78664 41.9389L4.78038 41.9267L4.77562 41.9144L4.77238 41.9017L4.77065 41.8889L4.77022 41.8759L4.7713 41.8632L4.77389 41.8504L4.778 41.8379L4.7834 41.8258L4.79032 41.8139L4.79875 41.8027L4.80848 41.7921L4.81972 41.7821ZM2.94452 42.9096L2.88183 42.6459L2.94884 42.6334L3.01779 42.6195L3.08589 42.6046L3.15376 42.5886L3.22077 42.5726L3.28713 42.5549L3.35328 42.5363L3.41791 42.5173L3.48276 42.4965L3.54696 42.4758L3.61073 42.454L3.67385 42.4311L3.73632 42.4068L3.79836 42.3822L3.85953 42.3565L3.92049 42.3301L3.97993 42.3031L4.03981 42.2746L4.09925 42.2452L4.15805 42.2149L4.21576 42.1842L4.27304 42.152L4.33055 42.1193L4.38675 42.0854L4.44317 42.0508L4.49807 42.0156L4.55254 41.9791L4.60788 41.9412L4.66127 41.9025L4.71445 41.8636L4.76741 41.823L4.81972 41.7821L5.03977 41.9762L4.98357 42.0206L4.92715 42.0634L4.87009 42.1062L4.8115 42.147L4.75401 42.187L4.69435 42.2266L4.63425 42.2653L4.57438 42.3029L4.51298 42.339L4.45203 42.3746L4.38956 42.409L4.32665 42.4427L4.2631 42.4752L4.19977 42.5067L4.13514 42.5374L4.06921 42.5675L4.00349 42.596L3.93713 42.6239L3.86991 42.6507L3.80268 42.6757L3.73437 42.7008L3.66585 42.7248L3.59646 42.7477L3.52686 42.7693L3.45574 42.7905L3.38484 42.81L3.31329 42.829L3.24109 42.8472L3.16846 42.864L3.09518 42.8798L3.02147 42.8949L2.94452 42.9096ZM2.88183 42.6459L2.94452 42.9096L2.93004 42.9111L2.91404 42.912L2.89826 42.9114L2.88291 42.9094L2.86778 42.9064L2.8533 42.9021L2.83925 42.8967L2.82606 42.8902L2.81353 42.8826L2.80207 42.8742L2.79147 42.8649L2.78197 42.8545L2.77375 42.8435L2.76662 42.8316L2.761 42.8188L2.75689 42.8057L2.7543 42.792L2.75343 42.7786L2.75408 42.7655L2.75646 42.7525L2.76013 42.7397L2.7651 42.7276L2.77159 42.7157L2.77937 42.7047L2.78823 42.6943L2.7984 42.6846L2.80963 42.6757L2.82196 42.6677L2.83514 42.6608L2.84941 42.6548L2.86432 42.65L2.88183 42.6459ZM0.561549 41.9475L0.864181 41.8615L0.892276 41.928L0.923192 41.9912L0.956261 42.0515L0.991283 42.1096L1.02781 42.1637L1.06651 42.2149L1.10779 42.264L1.15059 42.31L1.19534 42.3534L1.24181 42.3934L1.29088 42.4317L1.34168 42.4669L1.39507 42.5L1.45019 42.5303L1.50704 42.5575L1.56649 42.583L1.62982 42.6064L1.69402 42.6269L1.7606 42.6448L1.83129 42.6606L1.90348 42.6736L1.97892 42.6842L2.05587 42.6926L2.13694 42.698L2.22081 42.7013L2.30727 42.7017L2.39611 42.6991L2.48755 42.6937L2.58266 42.6859L2.6795 42.6753L2.77959 42.6621L2.88183 42.6459L2.94452 42.9096L2.83319 42.9267L2.72447 42.9412L2.61768 42.9527L2.51392 42.9613L2.41124 42.9667L2.31116 42.9693L2.21346 42.9689L2.11835 42.9656L2.02475 42.9594L1.93266 42.9501L1.84339 42.9373L1.75606 42.9209L1.67197 42.9021L1.58897 42.8798L1.50834 42.8541L1.4316 42.8255L1.35573 42.794L1.28245 42.7581L1.21263 42.7196L1.1454 42.6779L1.08077 42.6332L1.01917 42.5858L0.960151 42.5342L0.904171 42.4803L0.851426 42.4235L0.80149 42.364L0.754151 42.3011L0.709837 42.2354L0.66877 42.1682L0.630507 42.0971L0.59484 42.0236L0.561549 41.9475ZM1.01009 39.0782L1.30018 39.1893L1.24441 39.2894L1.19253 39.3871L1.14324 39.4833L1.09633 39.5786L1.05267 39.673L1.01095 39.7662L0.972689 39.8589L0.93659 39.9502L0.903521 40.0407L0.872606 40.1309L0.845154 40.2193L0.819867 40.3068L0.797166 40.3935L0.777279 40.4789L0.75999 40.5643L0.745504 40.6482L0.733615 40.7307L0.724324 40.8129L0.717186 40.8935L0.712862 40.9735L0.711352 41.0528L0.712218 41.1308L0.716109 41.2082L0.722592 41.2841L0.731456 41.3598L0.742695 41.4339L0.756527 41.5076L0.772739 41.58L0.791333 41.6516L0.812946 41.722L0.837373 41.7925L0.864181 41.8615L0.561549 41.9475L0.532155 41.8703L0.505563 41.7925L0.481353 41.7134L0.460173 41.6336L0.441363 41.5526L0.426233 41.4715L0.413694 41.3892L0.40397 41.3061L0.397482 41.2221L0.393591 41.1373L0.392731 41.0519L0.39424 40.9661L0.398564 40.8788L0.405696 40.7908L0.415859 40.7022L0.429046 40.6123L0.444826 40.5223L0.463414 40.4318L0.4846 40.3399L0.508594 40.2472L0.53518 40.154L0.565224 40.0595L0.597432 39.9651L0.632666 39.8693L0.670064 39.7729L0.71092 39.6759L0.753935 39.5775L0.800191 39.4787L0.848396 39.3795L0.899842 39.279L0.954318 39.1783L1.01009 39.0782ZM1.30018 39.1893L1.01009 39.0782L1.01852 39.0639L1.0276 39.0529L1.03754 39.0427L1.04878 39.0334L1.06088 39.0252L1.07386 39.0181L1.08748 39.0122L1.10174 39.0073L1.11644 39.0036L1.13136 39.001L1.1467 38.9997L1.16227 38.9995L1.17783 39.0008L1.19339 39.0034L1.20874 39.0073L1.22387 39.0125L1.23814 39.0189L1.25154 39.0265L1.26364 39.0352L1.27467 39.0445L1.28418 39.0546L1.29283 39.0654L1.29996 39.0769L1.3058 39.0888L1.31012 39.1011L1.31315 39.1138L1.31466 39.1268L1.31487 39.1398L1.31336 39.1528L1.31034 39.1659L1.3058 39.1787L1.30018 39.1893ZM4.93969 32.5157L1.30018 39.1893L1.01009 39.0782L4.64765 32.4076L4.93969 32.5157ZM4.93969 32.5157L4.64765 32.4076L4.65522 32.3955L4.66386 32.3843L4.67381 32.3739L4.68483 32.3646L4.69672 32.3564L4.70948 32.3491L4.72288 32.3428L4.73715 32.3378L4.75163 32.3339L4.76676 32.3311L4.78189 32.3296L4.79745 32.3294L4.81302 32.3303L4.82858 32.3326L4.84393 32.3363L4.85906 32.3413L4.87354 32.3476L4.88694 32.3549L4.89905 32.3631L4.91029 32.3724L4.92002 32.3824L4.92866 32.3932L4.93601 32.4044L4.94206 32.4163L4.94682 32.4284L4.95006 32.4411L4.95179 32.4539L4.95201 32.4669L4.95093 32.4801L4.94812 32.493L4.93969 32.5157ZM6.60542 28.3129L6.90286 28.4106L6.82072 28.5868L6.73987 28.7599L6.66054 28.9298L6.58251 29.0967L6.50577 29.2605L6.43033 29.4212L6.35641 29.5792L6.28291 29.7337L6.21158 29.885L6.14154 30.0333L6.0728 30.1786L6.00558 30.3206L5.93964 30.4596L5.87501 30.5962L5.81168 30.7291L5.74964 30.8588L5.68911 30.9855L5.62967 31.1089L5.57174 31.2298L5.51511 31.3472L5.45999 31.4615L5.40551 31.5726L5.35276 31.6811L5.30154 31.7862L5.25182 31.888L5.20318 31.9868L5.15606 32.083L5.11023 32.1755L5.0657 32.265L5.02204 32.3517L4.98011 32.4349L4.93969 32.5157L4.64765 32.4076L4.68613 32.3311L4.72806 32.2479L4.77086 32.1621L4.81539 32.0726L4.86122 31.9801L4.90834 31.8847L4.95698 31.786L5.00669 31.6841L5.05792 31.5791L5.11067 31.4719L5.16384 31.3608L5.21896 31.2464L5.2756 31.129L5.33353 31.0091L5.39297 30.8856L5.4535 30.759L5.51553 30.6293L5.57887 30.4963L5.6435 30.361L5.70943 30.222L5.77666 30.08L5.8454 29.9347L5.91543 29.7865L5.98677 29.6351L6.05897 29.4806L6.1329 29.3234L6.20834 29.1628L6.28507 28.999L6.36311 28.8321L6.44244 28.6622L6.52328 28.4891L6.60542 28.3129ZM6.90286 28.4106L6.60542 28.3129L6.61212 28.3004L6.62012 28.2887L6.62942 28.2779L6.63979 28.2681L6.65103 28.2593L6.66336 28.2515L6.67632 28.2446L6.69016 28.239L6.70442 28.2344L6.71934 28.231L6.73447 28.2286L6.74982 28.2277L6.7656 28.2279L6.78116 28.2295L6.79673 28.2325L6.81229 28.2368L6.8272 28.2424L6.84104 28.2491L6.85379 28.2569L6.86547 28.2656L6.87606 28.2751L6.88535 28.2854L6.89357 28.2962L6.90027 28.3079L6.90567 28.32L6.90978 28.3323L6.91259 28.3451L6.91367 28.3581L6.91345 28.3713L6.91151 28.3844L6.90805 28.3976L6.90286 28.4106ZM9.80678 21.327L10.0917 21.2051L10.0992 21.3123L9.98273 21.5767L9.86752 21.8384L9.75317 22.0978L9.6399 22.354L9.52728 22.6073L9.41617 22.8581L9.30615 23.1058L9.1972 23.3511L9.08934 23.5934L8.98255 23.8332L8.87685 24.0699L8.77201 24.3048L8.66847 24.5361L8.56601 24.7648L8.46463 24.9907L8.36411 25.2138L8.2649 25.4341L8.16654 25.6517L8.06949 25.8666L7.97329 26.0791L7.87818 26.2885L7.78437 26.4952L7.69142 26.699L7.5989 26.9001L7.50812 27.0987L7.41841 27.2943L7.32978 27.4872L7.24224 27.6772L7.15577 27.8646L7.07039 28.0492L6.98609 28.2316L6.90286 28.4106L6.60542 28.3129L6.68865 28.1339L6.77295 27.9528L6.85833 27.7682L6.9448 27.5808L7.03235 27.3907L7.12097 27.1979L7.21068 27.0023L7.30147 26.8045L7.39269 26.6035L7.48564 26.3996L7.57945 26.193L7.67456 25.9835L7.77075 25.7719L7.86781 25.5571L7.96616 25.3394L8.06538 25.1191L8.1659 24.896L8.26728 24.6701L8.36974 24.4414L8.47328 24.2101L8.57812 23.9765L8.68382 23.7398L8.7906 23.5001L8.89847 23.2577L9.00741 23.0124L9.11744 22.7647L9.22854 22.5139L9.33987 22.2606L9.45314 22.0044L9.56748 21.7459L9.6827 21.4841L9.79921 21.2198L9.80678 21.327ZM10.0992 21.3123L9.79921 21.2198L9.80569 21.2072L9.81326 21.1953L9.82234 21.1845L9.83228 21.1744L9.84352 21.1653L9.85541 21.1573L9.86838 21.1502L9.882 21.1443L9.89627 21.1394L9.91097 21.1357L9.9261 21.1333L9.94144 21.132H9.95701L9.97279 21.1333L9.98857 21.1359L10.0041 21.14L10.0193 21.1454L10.0333 21.1519L10.0463 21.1595L10.0582 21.1679L10.069 21.1772L10.0785 21.1873L10.0917 21.2051L10.0971 21.2157L10.1023 21.2278L10.1059 21.2403L10.1083 21.2533L10.109 21.2663L10.1083 21.2794L10.1059 21.2926L10.0992 21.3123ZM8.06278 17.863L10.0917 21.2051L9.80678 21.327L7.77853 17.9854L8.06278 17.863ZM8.06278 17.863L7.77853 17.9854L7.77183 17.9728L7.76686 17.9601L7.7634 17.9471L7.76167 17.9339L7.76124 17.9209L7.76253 17.908L7.76513 17.8952L7.76902 17.8829L7.77464 17.8708L7.78134 17.8591L7.78956 17.8481L7.79885 17.8377L7.80944 17.8282L7.82133 17.8193L7.83451 17.8116L7.84857 17.8046L7.86348 17.799L7.87861 17.7949L7.89417 17.7919L7.90952 17.7904L7.92509 17.7902L7.94044 17.7912L7.95557 17.7934L7.97048 17.7966L7.98475 17.8014L7.99858 17.807L8.01177 17.8139L8.02409 17.8217L8.03555 17.8306L8.04592 17.8405L8.05522 17.8515L8.06278 17.863ZM2.78672 9.4448L3.0794 9.33672L3.17754 9.52349L3.28021 9.71609L3.38635 9.91344L3.49551 10.1158L3.60921 10.3231L3.72637 10.536L3.84656 10.7539L3.97128 10.977L4.09947 11.2048L4.23132 11.4378L4.36643 11.6762L4.50564 11.9194L4.64873 12.1682L4.79529 12.422L4.94509 12.6807L5.099 12.9447L5.25679 13.2136L5.41827 13.4879L5.5832 13.7674L5.75202 14.0512L5.92365 14.3409L6.09983 14.6357L6.27967 14.9353L6.46319 15.2401L6.65017 15.5503L6.84104 15.8648L7.03494 16.1851L7.23316 16.5107L7.43505 16.8412L7.64062 17.1765L7.84987 17.5171L8.06278 17.863L7.77853 17.9854L7.56626 17.6399L7.35702 17.2992L7.15145 16.9631L6.94955 16.6326L6.75133 16.3071L6.55614 15.9867L6.36527 15.6709L6.17829 15.3607L5.99477 15.0559L5.81492 14.7555L5.63875 14.4606L5.46582 14.171L5.297 13.8858L5.13207 13.6063L4.9706 13.332L4.8128 13.0623L4.65889 12.7983L4.50779 12.5387L4.36124 12.2849L4.21814 12.0361L4.07893 11.7917L3.94253 11.5532L3.81067 11.3194L3.68249 11.0902L3.55777 10.8671L3.43628 10.6484L3.31912 10.4355L3.20542 10.2269L3.09497 10.0237L2.98883 9.82546L2.88615 9.63287L2.78672 9.4448ZM3.0794 9.33672L2.78672 9.4448L2.78088 9.43205L2.77678 9.41908L2.77418 9.4059L2.77331 9.39293L2.77375 9.37974L2.77569 9.36699L2.77937 9.35445L2.78413 9.34213L2.79039 9.33046L2.79796 9.31922L2.80682 9.30862L2.81676 9.29868L2.82801 9.2896L2.84054 9.28139L2.85394 9.27404L2.86864 9.26798L2.88399 9.26301L2.89934 9.25956L2.9149 9.25739L2.93068 9.25653L2.94603 9.25718L2.96138 9.25869L2.97629 9.26172L2.99099 9.26582L3.00504 9.27101L3.01844 9.27728L3.03098 9.28484L3.04287 9.29327L3.05368 9.30279L3.06341 9.31316L3.07205 9.3244L3.0794 9.33672ZM1.36157 5.48775L1.68019 5.51066L1.67327 5.56903L1.66938 5.62739L1.66895 5.69029L1.67198 5.75709L1.67803 5.82885L1.68711 5.90494L1.69922 5.98557L1.71478 6.07031L1.73337 6.15915L1.75542 6.25253L1.78071 6.34981L1.80946 6.4514L1.84145 6.55753L1.87668 6.66713L1.91516 6.78126L1.95709 6.89907L2.00227 7.0212L2.05134 7.14723L2.10322 7.27757L2.15813 7.41202L2.21649 7.55036L2.27875 7.6926L2.34381 7.83894L2.4119 7.98939L2.4841 8.14394L2.55889 8.30217L2.63714 8.46494L2.71906 8.63096L2.80402 8.80172L2.89286 8.97616L2.98408 9.15471L3.0794 9.33672L2.78672 9.4448L2.6914 9.26063L2.59888 9.08122L2.51003 8.90548L2.42422 8.73385L2.3423 8.56567L2.26275 8.40204L2.18666 8.24165L2.11446 8.0858L2.04507 7.93362L1.97871 7.78512L1.91645 7.64072L1.85679 7.50022L1.80059 7.3636L1.74742 7.2311L1.69835 7.10205L1.65188 6.97689L1.60908 6.85562L1.5693 6.73846L1.53277 6.62455L1.49948 6.51538L1.46944 6.40947L1.44285 6.30701L1.4195 6.20843L1.39961 6.11354L1.38275 6.02232L1.36935 5.93521L1.35941 5.8509L1.35336 5.77092L1.35033 5.69333L1.35076 5.62004L1.35465 5.55001L1.36157 5.48775ZM1.68019 5.51066L1.36157 5.48775L1.3633 5.47608L1.36676 5.46289L1.37173 5.45014L1.37821 5.43825L1.386 5.42679L1.39507 5.4162L1.40524 5.40647L1.41626 5.39762L1.42858 5.38962L1.44155 5.3827L1.45517 5.37686L1.46965 5.37211L1.48457 5.36843L1.50013 5.36605L1.51591 5.36497L1.53212 5.36519L1.54855 5.36692L1.56433 5.36973L1.57946 5.37405L1.59373 5.37945L1.60713 5.38594L1.61988 5.39351L1.63134 5.40193L1.64193 5.41145L1.65144 5.42161L1.65966 5.43242L1.66679 5.44387L1.67241 5.45598L1.67674 5.46873L1.67954 5.4817L1.68084 5.49488L1.68019 5.51066ZM2.84033 3.20444L3.04785 3.40806L2.97089 3.46448L2.8961 3.52177L2.82304 3.57991L2.75279 3.63806L2.68491 3.69707L2.6192 3.75652L2.55565 3.81661L2.49383 3.87692L2.43482 3.93787L2.3784 4.00013L2.32328 4.06239L2.27118 4.12529L2.2206 4.18905L2.17283 4.25261L2.127 4.31746L2.08334 4.38252L2.04162 4.44823L2.00249 4.51459L1.96575 4.58182L1.93094 4.64927L1.89787 4.71757L1.86717 4.78674L1.83929 4.85613L1.81292 4.92595L1.78828 4.99707L1.76645 5.06861L1.74699 5.14038L1.72926 5.21279L1.7137 5.28651L1.7003 5.36065L1.68927 5.43522L1.68019 5.51066L1.36157 5.48775L1.37152 5.40583L1.38384 5.3239L1.39854 5.24328L1.4154 5.16351L1.43442 5.08375L1.45647 5.00464L1.48089 4.9266L1.50684 4.84943L1.53537 4.77226L1.56715 4.69639L1.60043 4.62116L1.6361 4.54637L1.67436 4.47244L1.715 4.39916L1.75802 4.32632L1.80319 4.25455L1.85074 4.183L1.90046 4.11297L1.95299 4.04293L2.00746 3.97397L2.06432 3.90588L2.12333 3.83844L2.18493 3.77186L2.2487 3.70572L2.31441 3.64022L2.38272 3.57581L2.45362 3.51204L2.52668 3.44914L2.60169 3.38667L2.67865 3.32549L2.75819 3.26475L2.84033 3.20444ZM6.02417 2.43296L5.98397 2.69884L5.87783 2.68868L5.77148 2.68047L5.66794 2.67419L5.56418 2.67009L5.46151 2.66814L5.35926 2.66836L5.25918 2.67074L5.15931 2.67528L5.06117 2.68154L4.96369 2.69062L4.86663 2.70121L4.77173 2.71397L4.67684 2.72845L4.58259 2.74553L4.48986 2.76434L4.39799 2.78595L4.30742 2.80843L4.2175 2.83372L4.12844 2.86161L4.04002 2.89057L3.95291 2.92213L3.86623 2.95607L3.7802 2.99131L3.69633 3.02913L3.61224 3.06934L3.52924 3.11106L3.44666 3.15558L3.36539 3.20163L3.28476 3.25005L3.20478 3.30063L3.12588 3.35316L3.04785 3.40806L2.84033 3.20444L2.92442 3.14521L3.0098 3.08836L3.09583 3.03389L3.18294 2.98114L3.27157 2.93078L3.36063 2.88322L3.45099 2.83718L3.54242 2.79395L3.63537 2.75309L3.72875 2.71354L3.82279 2.67744L3.91854 2.64285L4.01474 2.61043L4.11244 2.58082L4.21101 2.55336L4.31066 2.52742L4.41117 2.50494L4.51256 2.48397L4.61415 2.46603L4.71683 2.44939L4.82167 2.43534L4.92607 2.42388L5.03221 2.4148L5.13942 2.40767L5.24664 2.40313L5.35537 2.40075L5.4641 2.40054L5.57412 2.40248L5.68523 2.40659L5.79785 2.41286L5.91026 2.42193L6.02417 2.43296ZM7.94866 3.0769L7.70094 3.24594L7.66722 3.21309L7.63241 3.18109L7.5961 3.15126L7.55806 3.1223L7.51849 3.09485L7.47764 3.06826L7.43527 3.04361L7.39161 3.01962L7.34665 2.99649L7.29952 2.97488L7.25197 2.95412L7.20247 2.9351L7.15124 2.91586L7.09958 2.89836L7.04597 2.88149L6.99171 2.86571L6.93551 2.8508L6.87866 2.83696L6.81986 2.82313L6.76129 2.81016L6.70076 2.79827L6.6398 2.78703L6.57733 2.77579L6.51421 2.76585L6.45066 2.75633L6.38603 2.74683L6.32053 2.73796L6.2546 2.72996L6.18802 2.72175L6.12123 2.71397L6.05249 2.70619L5.98397 2.69884L6.02417 2.43296L6.09356 2.44031L6.1623 2.44809L6.23169 2.45587L6.30086 2.46409L6.36938 2.47338L6.43747 2.48224L6.50557 2.49176L6.57301 2.50213L6.64002 2.51337L6.70594 2.52461L6.77209 2.53672L6.83737 2.5499L6.90244 2.56374L6.96599 2.57843L7.02932 2.59443L7.09158 2.61151L7.15362 2.62945L7.21458 2.64847L7.27489 2.669L7.3339 2.69041L7.39204 2.71375L7.44954 2.73839L7.50531 2.76433L7.56022 2.79178L7.61426 2.82097L7.66657 2.85209L7.71737 2.88473L7.76687 2.91954L7.81485 2.95585L7.86112 2.99433L7.90586 3.03454L7.94866 3.0769ZM9.26616 5.25577L8.97478 5.36602L8.92614 5.27591L8.87685 5.18621L8.82886 5.09693L8.78153 5.00939L8.73462 4.92292L8.68857 4.83754L8.64362 4.75388L8.59865 4.67109L8.55412 4.5896L8.51024 4.51005L8.46701 4.43159L8.42443 4.35485L8.38292 4.28006L8.34121 4.20613L8.30078 4.13415L8.26036 4.06433L8.22102 3.99667L8.18168 3.93031L8.14342 3.86654L8.10559 3.80407L8.06819 3.7442L8.03144 3.68648L7.99578 3.63114L7.96011 3.57775L7.92553 3.52717L7.89137 3.47875L7.85744 3.43314L7.82436 3.39012L7.79237 3.3497L7.76103 3.31209L7.73055 3.27772L7.70094 3.24594L7.94866 3.0769L7.98432 3.11473L8.01999 3.15558L8.05609 3.19839L8.09197 3.24314L8.12764 3.29047L8.16374 3.33997L8.20048 3.39185L8.23767 3.44546L8.27463 3.50101L8.31289 3.55938L8.35093 3.61925L8.3892 3.68129L8.42832 3.74463L8.46788 3.81056L8.50722 3.87821L8.54786 3.9476L8.58828 4.01872L8.63 4.09157L8.67172 4.16549L8.71452 4.24158L8.7571 4.31918L8.80033 4.39765L8.84421 4.4785L8.88874 4.55999L8.9337 4.64278L8.97996 4.7273L9.02601 4.81268L9.07291 4.89915L9.12025 4.98669L9.16824 5.0751L9.21623 5.16481L9.26616 5.25577ZM8.97478 5.36602L9.26616 5.25577L9.27156 5.26813L9.27589 5.2811L9.2787 5.29407L9.27978 5.30726L9.27956 5.32023L9.27784 5.33298L9.27459 5.34574L9.26984 5.35784L9.26378 5.36973L9.25643 5.38097L9.24779 5.39178L9.23806 5.40172L9.22682 5.41101L9.21471 5.41923L9.20131 5.42658L9.18683 5.43285L9.1717 5.43782L9.15635 5.4415L9.14079 5.44387L9.12522 5.44474L9.10966 5.44452L9.09453 5.44301L9.07939 5.4402L9.06491 5.43631L9.05065 5.43133L9.03725 5.42507L9.02449 5.41772L9.0126 5.4095L9.00158 5.40021L8.99163 5.38983L8.98299 5.37859L8.97478 5.36602Z" fill="#23B5C9"/>
<path d="M9.12048 5.31089L10.9687 8.72776C11.5899 10.2934 12.2505 11.1326 12.5399 11.8264C12.8294 12.5203 13.2224 13.2094 13.7193 13.8938C14.713 11.9328 18.6009 2.56133 21.0446 1.15627C21.577 0.849756 22.1756 0.731949 22.839 0.802417C23.7607 0.900338 24.4645 1.20404 24.9496 1.71375C25.4357 2.22281 25.6222 2.85032 25.5111 3.59652C25.5062 3.62743 25.4657 3.83668 25.3892 4.22317C25.3129 4.60924 23.581 8.36417 20.1942 15.4871L18.0668 19.95C18.2462 20.2533 18.3737 20.5905 18.4491 20.9614C18.5246 21.3328 18.699 21.7003 18.7846 21.9901C18.8475 22.3468 19.3823 23.3368 19.0164 23.6604C18.6497 23.9842 17.0573 23.5683 16.5411 23.7661C15.4611 24.9773 14.3313 26.4597 13.1519 28.2132C11.9719 29.9665 10.7815 31.979 9.58068 34.251L6.62943 39.7154C6.07044 40.6976 5.50367 41.4189 4.92976 41.8791C4.35521 42.3391 3.68337 42.6383 2.91319 42.7777C1.76105 42.971 1.02762 42.6798 0.712884 41.9044C0.397721 41.1291 0.545575 40.2056 1.15515 39.1337L4.79271 32.4632C5.21747 31.6247 5.87114 30.2572 6.75416 28.3617C7.63653 26.4666 8.70177 24.1012 9.94924 21.266L7.921 17.9244C5.63012 14.2079 3.96783 11.3632 2.93307 9.39074C1.89917 7.4174 1.42838 6.12065 1.52089 5.49919C1.60973 4.65573 2.08398 3.9251 2.9441 3.30623C3.80442 2.68693 4.82448 2.44029 6.00408 2.56588C6.74162 2.64413 7.42642 2.74962 7.82481 3.1614C8.17088 3.51937 8.59176 4.33924 9.12048 5.31089Z" fill="#23B5C9"/>
</svg>
